<?xml version="1.0" encoding="UTF-8" standalone="no"?>
<!-- Created with Inkscape (http://www.inkscape.org/) -->

<svg
   xmlns:dc="http://purl.org/dc/elements/1.1/"
   xmlns:cc="http://creativecommons.org/ns#"
   xmlns:rdf="http://www.w3.org/1999/02/22-rdf-syntax-ns#"
   xmlns:svg="http://www.w3.org/2000/svg"
   xmlns="http://www.w3.org/2000/svg"
   xmlns:sodipodi="http://sodipodi.sourceforge.net/DTD/sodipodi-0.dtd"
   xmlns:inkscape="http://www.inkscape.org/namespaces/inkscape"
   width="624.04169"
   height="559.08356"
   id="svg2"
   version="1.1"
   inkscape:version="0.47 r22583"
   sodipodi:docname="bureau_maître_chaise.svg">
  <title
     id="title3716">An Office Desk</title>
  <defs
     id="defs4">
    <inkscape:perspective
       sodipodi:type="inkscape:persp3d"
       inkscape:vp_x="0 : 526.18109 : 1"
       inkscape:vp_y="0 : 1000 : 0"
       inkscape:vp_z="744.09448 : 526.18109 : 1"
       inkscape:persp3d-origin="372.04724 : 350.78739 : 1"
       id="perspective10" />
    <inkscape:perspective
       id="perspective2825"
       inkscape:persp3d-origin="0.5 : 0.33333333 : 1"
       inkscape:vp_z="1 : 0.5 : 1"
       inkscape:vp_y="0 : 1000 : 0"
       inkscape:vp_x="0 : 0.5 : 1"
       sodipodi:type="inkscape:persp3d" />
    <inkscape:perspective
       id="perspective2917"
       inkscape:persp3d-origin="0.5 : 0.33333333 : 1"
       inkscape:vp_z="1 : 0.5 : 1"
       inkscape:vp_y="0 : 1000 : 0"
       inkscape:vp_x="0 : 0.5 : 1"
       sodipodi:type="inkscape:persp3d" />
    <filter
       inkscape:collect="always"
       id="filter3712"
       x="-0.042490456"
       width="1.0849808"
       y="-0.23567776"
       height="1.4713556"
       color-interpolation-filters="sRGB">
      <feGaussianBlur
         inkscape:collect="always"
         stdDeviation="15.328206"
         id="feGaussianBlur3714" />
    </filter>
    <inkscape:perspective
       id="perspective2985"
       inkscape:persp3d-origin="112.491 : 213.54734 : 1"
       inkscape:vp_z="224.98199 : 320.32101 : 1"
       inkscape:vp_y="0 : 1000 : 0"
       inkscape:vp_x="0 : 320.32101 : 1"
       sodipodi:type="inkscape:persp3d" />
    <inkscape:perspective
       id="perspective3655"
       inkscape:persp3d-origin="96.831001 : 86.157003 : 1"
       inkscape:vp_z="193.662 : 129.2355 : 1"
       inkscape:vp_y="0 : 1000 : 0"
       inkscape:vp_x="0 : 129.2355 : 1"
       sodipodi:type="inkscape:persp3d" />
  </defs>
  <sodipodi:namedview
     id="base"
     pagecolor="#ffffff"
     bordercolor="#666666"
     borderopacity="1.0"
     inkscape:pageopacity="0.0"
     inkscape:pageshadow="2"
     inkscape:zoom="0.34794922"
     inkscape:cx="107.13406"
     inkscape:cy="592.83275"
     inkscape:document-units="px"
     inkscape:current-layer="layer1"
     showgrid="false"
     inkscape:window-width="1920"
     inkscape:window-height="1138"
     inkscape:window-x="-8"
     inkscape:window-y="-8"
     inkscape:window-maximized="1" />
  <metadata
     id="metadata7">
    <rdf:RDF>
      <cc:Work
         rdf:about="">
        <dc:format>image/svg+xml</dc:format>
        <dc:type
           rdf:resource="http://purl.org/dc/dcmitype/StillImage" />
        <dc:title>An Office Desk</dc:title>
        <dc:creator>
          <cc:Agent>
            <dc:title>Sheikh Tuhin</dc:title>
          </cc:Agent>
        </dc:creator>
        <dc:date>02/05/2010</dc:date>
        <dc:subject>
          <rdf:Bag>
            <rdf:li>desk</rdf:li>
            <rdf:li>office</rdf:li>
            <rdf:li />
          </rdf:Bag>
        </dc:subject>
        <cc:license
           rdf:resource="http://creativecommons.org/licenses/publicdomain/" />
      </cc:Work>
      <cc:License
         rdf:about="http://creativecommons.org/licenses/publicdomain/">
        <cc:permits
           rdf:resource="http://creativecommons.org/ns#Reproduction" />
        <cc:permits
           rdf:resource="http://creativecommons.org/ns#Distribution" />
        <cc:permits
           rdf:resource="http://creativecommons.org/ns#DerivativeWorks" />
      </cc:License>
    </rdf:RDF>
  </metadata>
  <g
     inkscape:label="Layer 1"
     inkscape:groupmode="layer"
     id="layer1"
     transform="translate(-81.891606,-489.53645)"
     style="display:inline">
    <g
       id="g3051"
       transform="matrix(0.57089649,0,0,0.57089649,45.057253,420.03418)">
      <path
         style="opacity:0.8;fill:#000000;fill-opacity:0.99607843;stroke:none;filter:url(#filter3712)"
         d="M 101.30789,916.92744 689.44483,760.95999 979.09513,827.50673 376.8027,1009.0532 101.30789,916.92744 z"
         id="path2934"
         sodipodi:nodetypes="ccccc" />
      <path
         sodipodi:nodetypes="ccccc"
         id="rect2896"
         d="m 138.19046,224.6884 688.85284,-74 0,192.20515 -688.85284,150 0,-268.20515 z"
         style="fill:#000000;fill-opacity:0.99607843;stroke:none"
         transform="translate(0,308.2677)" />
      <g
         id="g2884">
        <path
           sodipodi:nodetypes="ccccc"
           id="path2880"
           d="m 702.68875,499.72854 11.49593,-1.59617 0,277.80906 -11.49593,1.59617 0,-277.80906 z"
           style="fill:#cccccc;fill-opacity:0.99607843;stroke:none" />
        <path
           sodipodi:nodetypes="ccccc"
           id="path2882"
           d="m 692.3295,497.99451 11.85518,1.73403 0,277.80906 -11.85518,-1.73403 0,-277.80906 z"
           style="fill:#666666;fill-opacity:0.99607843;stroke:none" />
      </g>
      <g
         id="g2888">
        <path
           sodipodi:nodetypes="ccccc"
           id="path2876"
           d="m 139.38816,532.04654 11.49593,-2.24438 0,390.62718 -11.49593,2.24438 0,-390.62718 z"
           style="fill:#cccccc;fill-opacity:0.99607843;stroke:none" />
        <path
           sodipodi:nodetypes="ccccc"
           id="path2878"
           d="m 129.02891,529.60832 11.85518,2.43822 0,390.62718 -11.85518,-2.43822 0,-390.62718 z"
           style="fill:#666666;fill-opacity:0.99607843;stroke:none" />
      </g>
      <g
         id="g2892">
        <path
           sodipodi:nodetypes="ccccc"
           id="path2872"
           d="m 946.97727,478.6372 11.49593,-2.02284 0,352.06909 -11.49593,2.02284 0,-352.06909 z"
           style="fill:#cccccc;fill-opacity:0.99607843;stroke:none" />
        <path
           sodipodi:nodetypes="ccccc"
           id="path2874"
           d="m 936.61802,476.43965 11.85518,2.19755 0,352.06909 -11.85518,-2.19755 0,-352.06909 z"
           style="fill:#666666;fill-opacity:0.99607843;stroke:none" />
      </g>
      <path
         sodipodi:nodetypes="ccccc"
         id="rect2838"
         d="m 829.14397,195.96537 118.70728,-23.30564 0,249.16251 -118.77078,37.74983 0.0635,-263.6067 z"
         style="fill:#c87137;fill-opacity:0.99607843;stroke:none"
         transform="translate(0,308.2677)" />
      <path
         sodipodi:nodetypes="ccccc"
         id="rect2903"
         d="m 836.32892,607.61337 108.64833,-26 0,139.69913 -108.64833,30 0,-143.69913 z"
         style="fill:#784421;fill-opacity:0.99607843;stroke:none;display:inline" />
      <path
         sodipodi:nodetypes="ccccc"
         id="rect2841"
         d="m 523.06482,449.17947 306.07913,57.48527 0,261.17318 -306.07913,-76 0,-242.65845 z"
         style="fill:#28170b;fill-opacity:0.99607843;stroke:none" />
      <path
         sodipodi:nodetypes="ccccc"
         id="rect2831"
         d="m 380.8027,588.21399 11.49593,-2.35925 0,410.62027 -11.49593,2.35925 0,-410.62027 z"
         style="fill:#cccccc;fill-opacity:0.99607843;stroke:none" />
      <path
         sodipodi:nodetypes="ccccc"
         id="rect2833"
         d="m 370.44345,585.65098 11.85518,2.56301 0,410.62027 -11.85518,-2.56301 0,-410.62027 z"
         style="fill:#666666;fill-opacity:0.99607843;stroke:none" />
      <path
         style="fill:#784421;fill-opacity:0.99607843;stroke:none"
         d="m 138.6646,538.83594 232.07913,52 0,284.65845 -230.07913,-72 -2,-264.65845 z"
         id="path2844"
         sodipodi:nodetypes="ccccc" />
      <path
         sodipodi:nodetypes="ccccc"
         id="rect2846"
         d="m 101.30788,206.65973 279.49855,63.95237 0.0159,16.34671 -279.51442,-64.49218 0,-15.8069 z"
         style="fill:#28170b;fill-opacity:0.99607843;stroke:none"
         transform="translate(0,308.2677)" />
      <path
         sodipodi:nodetypes="ccccc"
         id="rect2835"
         d="m 392.29861,281.0723 166.691,-32 0,283.20517 -166.691,48 0,-299.20517 z"
         style="fill:#c87137;fill-opacity:0.99607843;stroke:none"
         transform="translate(0,308.2677)" />
      <path
         sodipodi:nodetypes="ccccc"
         id="rect2849"
         d="M 380.8027,576.87354 967.02357,467.47357 c 0,0 0,12.36992 0,12.36992 l -586.22087,115.39997 0,-18.36992 z"
         style="fill:#784421;fill-opacity:0.99607843;stroke:none" />
      <path
         sodipodi:nodetypes="ccccc"
         id="rect2906"
         d="m 836.32892,515.64593 108.51698,-22 0,71.44204 -108.51698,26 0,-75.44204 z"
         style="fill:#784421;fill-opacity:0.99607843;stroke:none;display:inline" />
      <path
         transform="translate(0,308.2677)"
         sodipodi:nodetypes="ccccc"
         id="rect2852"
         d="M 101.30789,206.65974 685.44483,114.69229 967.09513,159.23903 380.8027,270.78548 101.30789,206.65974 z"
         style="fill:#502d16;fill-opacity:0.99607843;stroke:none" />
      <path
         sodipodi:nodetypes="ccccc"
         id="rect2855"
         d="m 402.35757,394.59464 143.69913,-30 0,156.92169 -143.69913,42 0,-168.92169 z"
         style="fill:#784421;fill-opacity:0.99607843;stroke:none"
         transform="translate(0,308.2677)" />
      <path
         sodipodi:nodetypes="ccccc"
         id="rect2858"
         d="m 405.95004,298.93814 141.54364,-26 0,75.44204 -141.54364,30 0,-79.44204 z"
         style="fill:#784421;fill-opacity:0.99607843;stroke:none"
         transform="translate(0,308.2677)" />
      <path
         transform="translate(0,308.2677)"
         sodipodi:nodetypes="ccccc"
         id="rect2861"
         d="m 455.52625,419.89746 56.04265,-10 0,7.90345 -56.04265,10 0,-7.90345 z"
         style="fill:#e6e6e6;fill-opacity:0.99607843;stroke:none" />
      <path
         style="fill:#cccccc;fill-opacity:0.99607843;stroke:none"
         d="m 455.52625,641.94568 56.04265,-10 0,7.90345 -56.04265,10 0,-7.90345 z"
         id="path2864"
         sodipodi:nodetypes="ccccc" />
      <path
         sodipodi:nodetypes="ccccc"
         id="path2866"
         d="m 877.99103,551.92996 42.04265,-8 0,7.90345 -42.04265,8 0,-7.90345 z"
         style="fill:#cccccc;fill-opacity:0.99607843;stroke:none" />
      <path
         style="fill:#cccccc;fill-opacity:0.99607843;stroke:none"
         d="m 876.19479,627.73125 42.04265,-8 0,7.90345 -42.04265,8 0,-7.90345 z"
         id="path2868"
         sodipodi:nodetypes="ccccc" />
    </g>
    <g
       id="g5"
       transform="matrix(1.6820742,0,0,1.6820742,-1076.4495,-161.10406)">
      <g
         id="g3081"
         transform="matrix(0.47206513,0,0,0.47206513,869.43539,386.83725)">
        <path
           d="m 77.13,160.311 c -3.744,3.204 -8.316,6.912 -13.716,11.268 -5.472,4.393 -11.7,9.108 -18.828,14.688 l 0,0 c -4.032,0.72 -7.92,2.052 -12.24,4.14 -4.464,1.98 -9.468,4.5 -13.212,8.101 -3.6,3.527 -5.688,6.587 -8.352,13.211 -2.736,6.66 -6.084,15.804 -7.812,26.172 -1.872,10.224 -2.952,24.804 -2.952,34.992 -0.036,10.08 1.332,18.216 2.7,24.984 1.152,6.552 0.252,5.472 4.644,14.652 4.32,9.252 11.376,22.357 21.312,40.14 l 0,0 c 1.368,0.036 2.664,-0.071 3.888,-0.468 1.224,-0.468 2.16,-1.08 3.204,-1.979 l 0,0 c 0.396,2.88 0.504,5.544 0.468,7.848 -0.252,2.304 -1.044,4.212 -0.972,6.12 0,1.764 0.864,3.672 1.476,4.896 0.504,1.152 1.188,1.656 2.196,2.196 1.008,0.432 2.268,0.72 3.924,0.72 l 0,0 0,7.345 0,0 c -1.908,0.035 -3.996,0.107 -5.868,0.504 -1.908,0.359 -3.996,0.756 -5.868,1.476 l 0,0 c -1.188,15.3 -1.764,31.608 -1.728,50.04 0.036,18.36 0.684,37.729 1.944,59.22 l 0,0 c 4.5,0.072 9.072,0.072 13.716,0 4.644,-0.18 9.252,-0.432 13.968,-0.756 l 0,0 1.224,-27.899 0,0 c 0.792,5.615 1.764,11.195 2.916,16.884 1.188,5.688 2.772,13.248 3.924,17.136 1.044,3.744 1.224,4.14 2.196,5.616 0.864,1.368 1.8,2.268 2.952,2.7 l 0,0 c 1.584,9.323 2.736,18.468 3.888,27.72 0.972,9.288 1.98,19.26 2.448,27.396 0.324,7.956 0.036,14.509 0.252,20.341 0.18,5.688 0.504,10.332 0.972,13.932 l 0,0 c 2.232,0.036 4.248,0.036 5.904,0 1.692,-0.108 3.024,-0.145 4.14,-0.252 l 0,0 0,1.728 0,0 c -3.816,1.368 -7.848,4.104 -12.24,8.064 -4.464,4.068 -10.728,10.404 -13.932,15.66 -3.348,5.111 -5.148,10.62 -5.4,14.436 -0.252,3.672 1.188,7.092 4.176,7.344 2.988,0.072 8.316,-3.023 13.212,-6.371 4.788,-3.492 9.828,-7.956 15.408,-13.933 l 0,0 7.596,0 0,0 c 1.764,-1.908 3.6,-3.815 5.364,-5.868 1.656,-2.088 4.212,-4.067 5.148,-6.372 0.792,-2.556 0.864,-5.436 0.504,-8.063 -0.324,-2.592 -1.008,-5.04 -2.196,-7.344 l 0,0 0,0 c 1.512,-0.9 2.52,-1.584 3.168,-2.448 0.576,-0.9 0.792,-1.584 0.504,-2.448 l 0,0 c 0.612,-0.144 1.368,-0.144 2.664,0 1.188,0.036 2.736,0.252 4.644,0.504 l 0,0 0,0 c -1.512,1.332 -2.664,2.952 -3.168,4.86 -0.54,1.872 -0.396,3.996 -0.252,6.372 0,2.16 0.217,4.5 0.504,6.876 l 0,0 c 0.973,2.556 2.484,4.752 4.393,6.588 1.872,1.872 4.284,3.24 7.092,4.392 l 0,0 7.596,-1.691 0,0 c 2.7,3.42 6.517,6.552 11.736,9.54 5.148,2.952 14.76,7.775 19.116,8.063 4.248,0.108 7.056,-2.952 6.336,-7.092 -0.972,-4.284 -6.876,-12.42 -11.484,-17.604 -4.752,-5.328 -11.52,-10.368 -16.02,-13.32 -4.429,-2.88 -8.028,-4.284 -10.656,-4.068 l 0,0 0.72,-3.42 0,0 c 1.8,-0.324 3.564,-0.612 5.148,-0.72 1.548,-0.216 3.06,-0.252 4.392,-0.252 l 0,0 c -1.296,-15.912 -1.584,-30.564 -0.72,-44.784 0.864,-14.22 2.592,-27.324 5.616,-39.888 l 0,0 c 1.368,-0.181 2.412,-1.656 3.672,-4.716 1.044,-3.061 1.691,-3.061 3.204,-13.465 1.439,-10.728 3.527,-34.056 5.868,-49.428 2.195,-15.408 4.932,-28.979 7.812,-41.832 l 0,0 c 4.212,-0.72 7.272,-2.088 9.324,-4.248 1.944,-2.231 1.908,-5.04 2.664,-8.567 0.72,-3.601 1.296,-7.74 1.728,-12.708 l 0,0 c 2.484,-0.181 4.212,-0.757 5.616,-1.729 1.224,-1.152 1.836,-2.196 2.232,-4.392 0.359,-2.269 -0.36,-6.048 0.216,-8.568 0.54,-2.52 1.476,-4.644 2.952,-6.372 l 0,0 c 0.863,0.972 2.088,1.872 3.672,2.7 1.512,0.792 3.384,1.404 5.616,1.979 l 0,0 c 6.084,-24.624 10.8,-43.632 14.436,-58.428 3.564,-14.688 6.084,-20.232 6.876,-29.124 0.72,-8.964 0.036,-14.4 -2.448,-24.228 -2.664,-10.008 -9,-26.388 -12.744,-34.704 -3.779,-8.28 -4.104,-11.052 -9.287,-14.688 -5.328,-3.708 -12.492,-6.156 -22.032,-7.344 l 0,0 c -3.853,-3.708 -8.784,-6.984 -14.94,-10.26 -6.228,-3.276 -13.428,-6.301 -21.996,-9.072 l 0,0 c -21.35,-0.867 -42.733,-1.732 -64.118,-2.631 l 0,0 z"
           style="fill-rule:evenodd;stroke:#000000;stroke-width:0.036;stroke-miterlimit:10"
           id="path7" />
        <path
           d="m 61.831,175.035 16.956,-13.428 62.244,2.088 14.437,6.3 0,0 c -3.564,3.492 -7.345,7.704 -11.736,12.78 -4.428,5.004 -10.368,12.42 -14.22,17.388 -3.816,4.824 -6.732,8.784 -8.604,11.736 l 0,0 c -1.26,-6.228 -2.736,-11.555 -4.824,-16.56 -2.052,-5.04 -5.616,-10.151 -7.344,-12.995 -1.8,-2.881 -2.916,-4.32 -3.348,-4.177 l 0,0 c -2.7,4.284 -5.328,9.217 -7.74,14.652 -2.556,5.508 -4.68,11.34 -6.912,18.036 l 0,0 c -3.42,-5.688 -6.912,-10.944 -10.476,-15.912 -3.636,-5.112 -8.136,-10.512 -11.124,-13.86 -3.17,-3.348 -5.473,-5.364 -7.309,-6.048 l 0,0 z"
           style="fill:#ffffff;fill-rule:evenodd;stroke:#000000;stroke-width:0.036;stroke-miterlimit:10"
           id="path9" />
        <path
           d="m 104.994,180.687 c -2.916,6.66 -5.112,11.988 -6.732,16.128 -1.656,4.14 -2.7,6.912 -3.132,8.604 l 0,0 c 1.296,3.168 2.556,5.832 3.78,8.388 1.224,2.448 2.412,4.608 3.564,6.48 l 0,0 c 0.432,0.144 1.152,0.144 2.304,0 1.116,-0.144 3.78,-1.116 4.392,-0.828 0.396,0.108 -0.288,1.332 -1.476,1.872 -1.26,0.432 -3.168,0.828 -5.868,1.044 l 0,0 c -1.764,6.588 -3.348,12.78 -4.608,18.864 -1.332,6.084 -2.376,11.628 -3.132,17.172 l 0,0 c 1.008,1.584 2.592,4.284 5.04,8.388 2.412,4.032 5.436,9.18 9.216,15.732 l 0,0 c 0.9,-3.492 1.908,-7.2 3.564,-11.52 1.548,-4.284 3.384,-8.964 5.652,-14.04 l 0,0 c -1.692,-6.804 -3.097,-13.392 -4.212,-19.908 -1.116,-6.588 -1.944,-12.852 -2.484,-19.08 l 0,0 c 2.088,-2.34 3.708,-4.248 5.004,-5.868 1.26,-1.728 2.052,-2.808 2.521,-3.78 l 0,0 c -1.261,-5.724 -2.952,-10.943 -5.221,-15.516 -2.304,-4.644 -4.932,-8.64 -8.172,-12.132 l 0,0 z"
           style="fill:#a80000;fill-rule:evenodd;stroke:#000000;stroke-width:0.036;stroke-miterlimit:10"
           id="path11" />
        <path
           d="m 61.614,175.863 -1.908,1.26 0,0 c 4.572,11.269 8.424,21.132 11.952,30.168 3.384,8.928 5.004,15.012 8.604,23.256 3.528,8.172 7.668,16.596 12.564,25.56 l 0,0 c 1.116,-7.488 2.304,-14.184 3.564,-20.088 1.188,-6.012 2.448,-11.052 3.78,-15.516 l 0,0 c -1.8,-3.996 -2.952,-7.02 -3.996,-9.216 -1.008,-2.232 -1.584,-3.564 -1.872,-3.996 l 0,0 c -0.9,2.7 -1.62,4.356 -2.304,5.256 -0.648,0.864 -0.864,0.972 -1.908,-0.216 -1.152,-1.296 -2.7,-3.816 -5.22,-7.56 -2.772,-3.887 -6.588,-10.476 -10.476,-15.299 -3.888,-4.825 -8.1,-9.361 -12.78,-13.609 l 0,0 z"
           style="fill:#ffffff;fill-rule:evenodd;stroke:#000000;stroke-width:0.036;stroke-miterlimit:10"
           id="path13" />
        <path
           d="m 156.33,170.823 1.44,0.432 0,0 c 0.899,2.341 0.828,5.652 -0.612,10.477 -1.476,4.788 -4.428,11.196 -7.74,17.82 -3.456,6.515 -8.748,14.471 -12.384,20.951 -3.708,6.264 -6.731,11.268 -9.647,16.956 -2.952,5.76 -5.725,11.196 -8.172,16.992 l 0,0 c -1.729,-7.56 -3.169,-14.004 -4.177,-19.908 -1.08,-5.904 -1.728,-10.836 -2.088,-15.084 l 0,0 c 1.008,-1.44 2.052,-2.844 3.132,-4.212 1.009,-1.476 2.053,-2.736 3.133,-4.176 l 0,0 c 0.216,0.684 0.504,1.188 0.863,1.656 0.288,0.432 0.612,1.044 1.261,0.864 0.539,-0.324 0.539,-0.216 2.52,-2.736 1.908,-2.7 5.868,-8.387 9.396,-12.78 3.491,-4.5 8.315,-9.72 11.556,-13.428 3.06,-3.708 5.399,-6.588 7.308,-8.784 1.98,-2.304 3.203,-4.032 4.211,-5.04 l 0,0 z"
           style="fill:#ffffff;fill-rule:evenodd;stroke:#000000;stroke-width:0.036;stroke-miterlimit:10"
           id="path15" />
        <path
           d="m 58.267,178.167 c -2.556,1.656 -4.68,3.132 -6.912,4.824 -2.196,1.656 -4.176,3.132 -6.084,4.824 l 0,0 c 1.944,4.752 3.636,9.216 5.22,13.392 1.476,4.212 2.412,7.776 4.212,11.52 1.764,3.636 3.924,7.02 6.48,10.296 l 0,0 c 0.612,0.72 1.728,1.152 3.348,1.44 1.584,0.18 3.636,0.18 6.3,0 l 0,0 c 0.612,1.296 1.008,3.204 1.044,5.868 0.036,2.628 -0.18,5.868 -0.648,9.864 l 0,0 c 0.684,1.62 2.556,4.788 5.472,9.648 2.952,4.896 8.388,13.86 12.132,19.26 3.564,5.184 6.732,8.964 9.648,12.168 2.916,3.276 5.292,5.472 7.56,7.128 l 0,0 1.872,-4.824 0,0 c -4.752,-6.192 -9.108,-12.708 -13.212,-19.692 -4.176,-7.056 -7.488,-13.68 -11.304,-22.212 -3.996,-8.712 -7.956,-19.332 -11.736,-28.944 -3.888,-9.719 -8.64,-22.68 -10.908,-28.476 -2.269,-5.833 -3.097,-7.812 -2.484,-6.084 l 0,0 z"
           style="fill:#294b70;fill-rule:evenodd;stroke:#000000;stroke-width:0.036;stroke-miterlimit:10"
           id="path17" />
        <path
           d="m 159.679,172.083 c 3.096,1.116 6.048,2.772 9,4.824 2.952,2.124 5.724,4.464 8.604,7.561 l 0,0 c -1.584,4.319 -3.492,8.855 -5.868,14.04 -2.447,5.147 -6.084,12.779 -8.388,16.523 -2.376,3.492 -2.988,3.78 -5.436,5.04 -2.521,1.26 -5.616,2.052 -9.433,2.52 l 0,0 c -0.792,1.332 -1.008,3.492 -0.647,6.48 0.359,2.952 1.224,6.732 2.735,11.34 l 0,0 c -3.456,5.256 -7.092,10.44 -10.907,15.696 -3.853,5.22 -7.021,9.936 -12.133,15.516 -5.292,5.58 -11.556,11.268 -19.08,17.604 l 0,0 c -0.036,-1.116 0.756,-4.068 2.52,-9 1.836,-5.076 5.004,-14.328 7.956,-20.556 2.808,-6.192 5.076,-10.188 8.604,-16.56 3.349,-6.624 8.101,-15.516 11.916,-22.212 3.816,-6.696 7.524,-12.348 10.692,-17.784 3.096,-5.544 5.76,-10.439 7.56,-15.084 1.62,-4.752 2.088,-10.116 2.521,-12.78 0.324,-2.7 0.251,-3.709 -0.216,-3.168 l 0,0 z"
           style="fill:#294b70;fill-rule:evenodd;stroke:#000000;stroke-width:0.036;stroke-miterlimit:10"
           id="path19" />
        <path
           d="m 37.386,112.467 c -0.072,3.924 0.576,8.243 1.8,13.104 1.188,4.788 2.952,10.692 5.436,15.912 2.448,5.147 5.22,10.439 8.856,15.192 3.492,4.823 7.488,9.035 12.132,13.031 4.572,3.78 9.576,7.272 15.588,9.792 6.048,2.521 13.644,4.393 20.268,5.076 6.516,0.468 12.636,-0.072 18.648,-1.62 5.977,-1.656 11.844,-4.14 17.172,-7.452 5.221,-3.42 10.008,-8.46 13.969,-12.491 3.672,-4.141 6.3,-7.74 8.855,-11.916 2.592,-4.212 4.824,-8.604 6.696,-13.032 1.8,-4.5 3.204,-9.54 4.355,-13.608 1.08,-4.104 1.8,-7.668 2.16,-10.836 l 0,0 c 1.044,0.504 2.376,0.756 3.996,0.756 1.62,-0.036 3.852,0.036 5.58,-0.899 1.656,-1.08 3.096,-2.592 4.176,-5.076 0.937,-2.521 1.656,-6.48 1.62,-9.937 -0.144,-3.672 -1.188,-8.388 -2.16,-11.231 -1.08,-2.809 -2.304,-4.536 -3.815,-5.616 -1.656,-1.152 -3.637,-1.296 -5.4,-1.26 -1.764,-0.036 -3.348,0.216 -4.896,0.899 l 0,0 c 0.936,-3.563 0.936,-7.884 0,-13.392 -1.045,-5.508 -2.845,-12.708 -5.797,-19.368 -3.132,-6.768 -8.964,-15.948 -11.951,-20.735 -2.988,-4.717 -3.024,-5.509 -5.544,-7.813 -2.521,-2.448 -5.4,-4.932 -9.469,-6.624 -4.176,-1.908 -9.252,-3.24 -15.084,-3.996 -5.939,-0.899 -12.744,-1.08 -19.872,-0.396 -7.308,0.647 -15.804,2.16 -22.968,5.075 -7.236,2.952 -13.644,7.345 -19.368,12.492 -5.832,5.076 -10.728,11.305 -14.688,17.568 -3.996,6.084 -6.804,14.22 -8.856,19.008 -2.196,4.68 -2.808,6.552 -3.636,9.216 -0.828,2.7 -1.188,4.681 -1.08,6.336 0.108,1.477 0.468,2.269 1.476,2.521 l 0,0 c -2.484,-0.18 -4.428,0.359 -5.976,1.476 -1.584,1.08 -2.484,2.916 -3.276,5.221 -0.936,2.268 -1.872,5.004 -1.98,8.352 -0.072,3.312 0.036,8.604 1.44,11.412 1.296,2.628 4.536,4.212 6.516,5.04 1.982,0.719 3.529,0.791 5.077,-0.181 l 0,0 z"
           style="fill-rule:evenodd;stroke:#000000;stroke-width:0.036;stroke-miterlimit:10"
           id="path21" />
        <path
           d="m 41.707,81.327 c 2.304,-1.224 4.788,-2.844 7.452,-4.859 2.592,-2.124 5.832,-4.788 8.316,-7.416 2.448,-2.881 4.392,-6.049 5.976,-8.532 1.404,-2.376 2.196,-4.356 2.52,-5.796 l 0,0 c 5.796,1.476 11.196,2.304 16.488,2.916 5.292,0.359 10.296,0.323 15.012,0.18 4.572,-0.144 8.028,0.036 12.312,-0.72 4.248,-0.828 8.856,-2.628 12.853,-3.996 3.888,-1.477 7.128,-2.664 10.151,-4.536 2.88,-1.98 5.185,-4.176 7.057,-6.876 l 0,0 c 1.476,3.096 2.987,6.372 4.68,9.972 1.692,3.528 3.312,7.38 5.256,11.412 1.872,3.996 3.853,8.964 5.796,12.528 1.765,3.456 3.636,6.372 5.076,8.315 1.368,1.801 1.872,2.017 3.06,2.736 1.152,0.612 2.232,1.08 3.637,1.26 l 0,0 c -0.252,0.648 -0.324,1.368 -0.36,2.16 -0.072,0.648 0.036,2.269 0.18,2.521 0.108,0.18 0.288,-0.108 0.54,-0.721 0.181,-0.611 0.288,-1.836 0.721,-2.699 0.359,-1.009 0.899,-1.98 1.619,-2.916 0.612,-1.045 1.513,-2.196 2.557,-2.881 0.972,-0.756 2.231,-1.367 3.78,-1.439 1.476,-0.216 3.888,-0.396 5.436,0.72 1.512,1.116 2.916,3.636 3.816,6.156 0.72,2.376 1.08,5.147 1.08,8.315 0.035,3.097 -0.324,7.597 -1.08,10.152 -0.864,2.34 -2.305,3.853 -4.177,4.68 -2.016,0.828 -5.544,1.009 -7.235,0.396 -1.692,-0.72 -2.484,-3.6 -3.061,-4.176 -0.756,-0.576 -0.972,-0.145 -0.936,0.72 -0.036,0.72 1.224,1.728 1.296,3.996 0.036,2.196 -0.108,4.824 -1.116,9.396 -1.224,4.5 -3.132,11.881 -5.58,17.425 -2.52,5.472 -5.544,10.439 -8.928,15.191 -3.348,4.645 -6.876,8.893 -11.268,12.889 -4.572,3.924 -10.513,8.1 -15.732,10.728 -5.328,2.448 -9.792,3.888 -15.732,4.464 -6.12,0.576 -13.824,0.252 -20.052,-0.972 -6.336,-1.368 -11.592,-3.672 -17.136,-6.912 -5.58,-3.384 -11.34,-7.992 -15.912,-12.853 -4.644,-5.004 -8.46,-11.304 -11.448,-16.416 -3.024,-5.22 -4.896,-9.899 -6.444,-14.327 -1.692,-4.572 -2.628,-8.82 -3.204,-12.168 -0.612,-3.313 -0.72,-5.94 -0.324,-7.74 l 0,0 c 1.08,-1.225 1.908,-2.269 2.34,-3.276 0.432,-1.08 0.36,-2.771 0.18,-2.735 -0.36,-0.072 -1.008,1.764 -1.8,2.735 -0.828,0.937 -1.8,2.557 -3.06,3.061 -1.548,0.323 -3.528,0.323 -5.256,-0.54 -1.764,-0.937 -3.6,-2.521 -4.536,-4.896 -0.972,-2.376 -1.224,-6.228 -0.9,-9.216 0.216,-3.168 1.224,-6.84 2.34,-9.072 1.044,-2.304 2.52,-3.312 3.996,-4.14 1.368,-0.864 3.096,-0.648 4.356,-0.72 1.044,-0.145 1.656,-0.288 2.52,0 1.008,0.144 2.016,0.432 2.88,1.26 0.684,0.684 0.936,3.168 1.296,3.42 0.252,0.144 0.504,-0.972 0.36,-1.98 -0.255,-1.083 -0.759,-2.379 -1.658,-4.178 l 0,0 z"
           style="fill:#e8cdba;fill-rule:evenodd;stroke:#000000;stroke-width:0.036;stroke-miterlimit:10"
           id="path23" />
        <path
           d="m 32.13,95.294 c 0.252,-1.115 0.54,-2.844 1.26,-3.815 0.684,-1.008 1.584,-2.124 2.556,-2.521 0.756,-0.54 1.728,-1.188 2.52,-0.54 0.684,0.612 2.052,3.097 2.16,3.96 0.072,0.648 -1.26,0.721 -1.62,0.36 -0.504,-0.54 -0.684,-2.268 -1.08,-2.7 -0.468,-0.504 -1.116,-0.54 -1.8,0.181 -0.72,0.647 -2.376,2.52 -2.736,3.96 -0.504,1.332 -0.468,3.204 -0.18,4.355 0.144,1.08 0.612,1.8 1.26,2.16 0.612,0.18 2.16,-0.828 2.556,-0.54 0.288,0.288 0,1.656 -0.72,2.016 -0.792,0.181 -3.168,0.145 -3.816,-0.54 -0.792,-0.792 -0.504,-2.556 -0.54,-3.636 -0.179,-1.043 -0.072,-1.763 0.18,-2.7 l 0,0 z"
           style="fill-rule:evenodd;stroke:#000000;stroke-width:0.036;stroke-miterlimit:10"
           id="path25" />
        <path
           d="m 180.522,98.607 c -0.145,-1.188 -0.288,-2.88 -0.72,-3.96 -0.576,-1.26 -1.332,-2.269 -2.124,-2.88 -0.721,-0.576 -1.62,-1.477 -2.412,-0.9 -0.937,0.432 -2.592,2.88 -2.736,3.601 -0.252,0.684 1.008,0.936 1.548,0.611 0.468,-0.432 0.864,-2.195 1.477,-2.52 0.468,-0.468 1.151,-0.324 1.764,0.432 0.612,0.792 1.764,2.844 2.088,4.356 0.216,1.403 -0.107,3.168 -0.432,4.319 -0.396,0.937 -0.973,1.765 -1.584,1.944 -0.721,0 -2.124,-1.044 -2.412,-0.9 -0.36,0.181 -0.36,1.656 0.396,2.088 0.685,0.253 2.988,0.576 3.853,0 0.72,-0.684 0.899,-2.447 1.08,-3.491 0.214,-0.973 0.287,-1.728 0.214,-2.7 l 0,0 z"
           style="fill-rule:evenodd;stroke:#000000;stroke-width:0.036;stroke-miterlimit:10"
           id="path27" />
        <path
           d="m 176.202,95.115 c -0.144,0.36 0.828,1.836 1.116,2.88 0.144,1.008 0.216,2.736 0.36,3.097 0.18,0.18 0.611,-0.793 0.72,-1.656 0,-0.937 -0.432,-2.916 -0.72,-3.601 -0.396,-0.793 -1.44,-1.081 -1.476,-0.72 l 0,0 z"
           style="fill-rule:evenodd;stroke:#000000;stroke-width:0.036;stroke-miterlimit:10"
           id="path29" />
        <path
           d="m 92.214,86.583 c 0,2.412 1.944,4.356 4.356,4.356 2.412,0 4.356,-1.944 4.356,-4.356 0,-2.376 -1.944,-4.319 -4.356,-4.319 -2.412,0 -4.356,1.943 -4.356,4.319 l 0,0 z"
           style="fill-rule:evenodd;stroke:#000000;stroke-width:0.036;stroke-miterlimit:10"
           id="path31" />
        <path
           d="m 109.782,86.763 c 0,2.412 1.944,4.355 4.356,4.355 2.376,0 4.319,-1.943 4.319,-4.355 0,-2.376 -1.943,-4.32 -4.319,-4.32 -2.411,0 -4.356,1.944 -4.356,4.32 l 0,0 z"
           style="fill-rule:evenodd;stroke:#000000;stroke-width:0.036;stroke-miterlimit:10"
           id="path33" />
        <path
           d="m 87.174,75.17 c 1.26,-0.54 4.392,-1.151 6.876,-1.439 2.268,-0.396 6.48,-0.468 7.236,-0.36 0.684,0.108 -0.324,0.468 -2.736,1.08 -2.556,0.504 -9.864,1.872 -11.772,2.017 -1.872,0.034 -0.9,-0.901 0.396,-1.298 l 0,0 z"
           style="fill-rule:evenodd;stroke:#000000;stroke-width:0.036;stroke-miterlimit:10"
           id="path35" />
        <path
           d="m 115.183,74.487 c 1.224,0.036 4.607,0.468 6.948,1.152 2.34,0.54 6.119,1.907 6.876,2.304 0.575,0.324 -0.54,0.432 -2.952,0.036 -2.557,-0.504 -9.864,-1.872 -11.664,-2.448 -1.872,-0.576 -0.504,-1.153 0.792,-1.044 l 0,0 z"
           style="fill-rule:evenodd;stroke:#000000;stroke-width:0.036;stroke-miterlimit:10"
           id="path37" />
        <path
           d="m 68.167,58.827 c 1.188,0.54 4.356,1.044 6.876,1.656 2.412,0.504 6.516,1.008 7.596,1.08 0.828,-0.216 -0.036,-0.972 -1.62,-1.44 -1.584,-0.396 -5.472,-0.576 -7.632,-0.936 -2.268,-0.468 -4.536,-1.656 -5.4,-1.62 -1.045,-0.072 -0.937,0.72 0.18,1.26 l 0,0 z"
           style="fill-rule:evenodd;stroke:#000000;stroke-width:0.036;stroke-miterlimit:10"
           id="path39" />
        <path
           d="m 140.742,52.491 c 0.504,1.656 1.44,4.464 2.521,6.336 0.828,1.729 2.771,4.212 2.916,3.996 -0.036,-0.396 -1.225,-3.924 -2.196,-6.156 -1.116,-2.34 -2.772,-7.164 -3.42,-7.812 -0.504,-0.685 -0.397,1.872 0.179,3.636 l 0,0 z"
           style="fill-rule:evenodd;stroke:#000000;stroke-width:0.036;stroke-miterlimit:10"
           id="path41" />
        <path
           d="m 84.079,61.023 c 0,0.288 0.684,0.54 1.548,0.54 0.828,0 1.548,-0.252 1.548,-0.54 0,-0.324 -0.72,-0.54 -1.548,-0.54 -0.865,0 -1.548,0.216 -1.548,0.54 l 0,0 z"
           style="fill-rule:evenodd;stroke:#000000;stroke-width:0.036;stroke-miterlimit:10"
           id="path43" />
        <path
           d="m 146.971,64.191 c -0.288,0.144 -0.145,0.864 0.252,1.584 0.432,0.756 0.972,1.224 1.224,1.08 0.252,-0.145 0.145,-0.864 -0.252,-1.584 -0.432,-0.756 -0.972,-1.225 -1.224,-1.08 l 0,0 z"
           style="fill-rule:evenodd;stroke:#000000;stroke-width:0.036;stroke-miterlimit:10"
           id="path45" />
        <path
           d="m 76.123,129.999 1.62,-0.72 0,0 c 0.576,3.313 1.548,6.444 2.916,9.396 1.224,2.916 2.916,5.724 5.22,8.136 2.34,2.268 5.148,4.14 8.712,5.616 3.528,1.367 7.956,3.168 12.312,2.916 4.212,-0.396 9.288,-2.521 12.853,-4.717 3.384,-2.195 5.939,-5.58 7.955,-8.496 1.944,-3.168 2.988,-6.876 3.96,-9.611 0.864,-2.736 1.513,-4.968 1.656,-6.696 l 0,0 2.16,0.18 0,0 c -1.08,3.78 -2.304,7.452 -3.816,10.872 -1.476,3.492 -3.168,6.876 -5.22,9.756 -2.124,2.809 -4.536,4.86 -7.812,6.696 -3.42,1.62 -8.28,3.132 -12.492,3.276 -4.284,0 -9.072,-0.756 -12.996,-2.7 -4.068,-2.052 -8.244,-5.616 -10.872,-8.892 -2.664,-3.24 -3.924,-7.885 -4.896,-10.332 -1.045,-2.556 -1.512,-4.068 -1.26,-4.68 l 0,0 z"
           style="fill-rule:evenodd;stroke:#000000;stroke-width:0.036;stroke-miterlimit:10"
           id="path47" />
        <path
           d="m 74.502,129.819 c 1.008,-0.612 2.088,-0.9 3.24,-1.26 1.188,-0.469 3.672,-1.8 3.996,-1.477 0.252,0.252 -1.296,1.872 -2.556,2.916 -1.512,0.973 -4.212,2.196 -5.616,2.7 -1.404,0.288 -2.952,-0.072 -2.7,-0.54 0.18,-0.575 2.412,-1.727 3.636,-2.339 l 0,0 z"
           style="fill-rule:evenodd;stroke:#000000;stroke-width:0.036;stroke-miterlimit:10"
           id="path49" />
        <path
           d="m 136.53,125.462 c -1.296,-0.252 -2.268,-0.575 -3.456,-0.575 -1.404,-0.396 -3.996,-0.792 -4.176,-0.612 -0.18,0.288 1.44,1.584 3.06,2.34 1.44,0.648 4.608,1.332 6.049,1.476 1.476,0 2.699,-0.684 2.556,-1.079 -0.325,-0.47 -2.773,-1.262 -4.033,-1.55 l 0,0 z"
           style="fill-rule:evenodd;stroke:#000000;stroke-width:0.036;stroke-miterlimit:10"
           id="path51" />
        <path
           d="m 64.926,54.219 c -0.72,2.268 -1.944,4.355 -3.276,6.659 -1.44,2.232 -2.952,4.068 -5.22,6.624 -2.448,2.376 -6.3,5.832 -9.036,8.028 -2.88,2.124 -5.544,4.104 -7.452,4.824 -1.98,0.612 -3.348,0 -3.96,-1.008 -0.684,-1.152 -0.216,-2.845 0.432,-5.509 0.576,-2.735 1.476,-6.264 3.384,-10.728 1.908,-4.608 4.68,-11.268 7.884,-16.38 3.06,-5.292 6.444,-10.08 10.584,-14.508 4.032,-4.536 8.64,-8.641 13.824,-11.88 5.112,-3.24 10.296,-5.509 16.524,-7.2 6.084,-1.765 13.968,-2.844 19.908,-3.24 5.796,-0.468 10.224,-0.036 15.228,0.72 4.824,0.576 9.9,1.332 14.257,3.384 4.392,1.98 8.531,5.688 11.592,8.893 2.808,3.096 3.996,6.336 6.084,9.864 2.195,3.527 4.68,7.523 6.624,11.016 1.8,3.276 2.735,5.04 4.212,8.892 1.332,3.816 3.204,9.721 4.104,13.824 0.792,3.924 0.937,6.984 0.973,9.756 -0.036,2.664 -0.181,4.824 -0.828,6.48 -0.792,1.584 -1.692,2.988 -3.097,3.24 -1.439,0.035 -3.132,-0.252 -5.075,-2.376 -2.088,-2.269 -4.212,-6.265 -6.517,-10.584 -2.304,-4.5 -4.607,-9.864 -7.056,-15.408 -2.592,-5.544 -5.076,-11.196 -7.884,-17.353 l 0,0 c 1.151,-1.8 1.943,-3.96 2.376,-6.624 0.359,-2.844 0.18,-8.172 0.144,-9.468 -0.144,-1.188 -0.468,0.54 -0.684,2.124 -0.324,1.548 -0.108,4.032 -0.72,6.624 -0.685,2.484 -1.44,5.544 -3.24,8.208 -2.017,2.448 -4.248,4.608 -8.208,6.769 -4.141,2.088 -10.656,4.607 -15.805,6.048 -5.184,1.368 -9.468,1.8 -14.795,2.268 -5.436,0.252 -12.204,0.108 -17.244,-0.144 -5.076,-0.217 -9.216,-0.685 -12.564,-1.404 -3.348,-1.008 -5.58,-2.304 -7.668,-3.744 -2.304,-1.584 -5.04,-4.355 -5.724,-4.716 -0.72,-0.288 0.684,2.124 1.44,3.06 0.648,0.756 1.584,1.152 2.664,2.017 1.079,0.756 2.304,1.836 3.815,2.952 l 0,0 z"
           style="fill:#78605c;fill-rule:evenodd;stroke:#000000;stroke-width:0.036;stroke-miterlimit:10"
           id="path53" />
        <path
           d="m 46.026,72.794 c 0.468,-0.863 3.42,-2.592 4.824,-3.779 1.26,-1.152 2.016,-1.872 3.384,-3.276 1.368,-1.584 4.176,-5.22 4.932,-5.616 0.504,-0.432 0.036,1.62 -0.972,3.097 -1.08,1.476 -3.06,3.636 -4.824,5.508 -1.8,1.8 -4.284,4.14 -5.508,4.932 -1.296,0.539 -2.376,-0.074 -1.836,-0.866 l 0,0 z"
           style="fill-rule:evenodd;stroke:#000000;stroke-width:0.036;stroke-miterlimit:10"
           id="path55" />
        <path
           d="m 43.074,75.603 c 0.108,0.216 0.684,0.072 1.26,-0.324 0.576,-0.36 0.936,-0.828 0.792,-1.044 -0.108,-0.18 -0.684,-0.036 -1.26,0.324 -0.575,0.396 -0.936,0.863 -0.792,1.044 l 0,0 z"
           style="fill-rule:evenodd;stroke:#000000;stroke-width:0.036;stroke-miterlimit:10"
           id="path57" />
        <path
           d="m 64.351,47.487 c 1.044,0.828 4.176,2.52 6.768,3.672 2.376,0.937 5.148,1.872 8.316,2.412 3.168,0.432 9.432,0.612 10.872,0.54 1.368,-0.18 -0.72,-0.684 -2.521,-0.972 -1.944,-0.252 -5.94,-0.396 -8.496,-0.721 -2.664,-0.575 -4.788,-1.224 -6.768,-1.943 -1.98,-0.721 -3.528,-1.477 -4.788,-2.124 -1.332,-0.685 -2.412,-1.8 -2.952,-1.836 -0.612,-0.181 -1.548,0.144 -0.431,0.972 l 0,0 z"
           style="fill-rule:evenodd;stroke:#000000;stroke-width:0.036;stroke-miterlimit:10"
           id="path59" />
        <path
           d="m 76.194,48.891 c 0.144,0.576 1.26,2.592 1.98,3.527 0.648,0.9 1.584,1.62 1.836,1.584 0.108,-0.18 -0.72,-1.584 -1.116,-2.412 -0.576,-0.899 -1.044,-2.447 -1.548,-2.844 -0.468,-0.503 -1.367,-0.503 -1.152,0.145 l 0,0 z"
           style="fill-rule:evenodd;stroke:#000000;stroke-width:0.036;stroke-miterlimit:10"
           id="path61" />
        <path
           d="m 73.386,49.754 c -0.072,0.36 0.576,1.44 1.116,2.124 0.432,0.54 1.692,1.656 1.836,1.549 0.108,-0.217 -0.864,-1.801 -1.116,-2.412 -0.252,-0.648 -0.54,-1.296 -0.72,-1.404 -0.324,-0.252 -1.151,-0.252 -1.116,0.143 l 0,0 z"
           style="fill-rule:evenodd;stroke:#000000;stroke-width:0.036;stroke-miterlimit:10"
           id="path63" />
        <path
           d="m 106.687,51.267 c 2.196,-1.116 9.072,-3.168 12.996,-4.788 3.852,-1.62 7.235,-3.276 10.151,-4.824 2.736,-1.692 5.04,-3.384 6.769,-4.644 1.728,-1.44 2.808,-2.521 3.672,-2.952 0.792,-0.324 1.404,-0.145 1.008,0.684 -0.54,0.685 -2.376,2.088 -3.96,3.384 -1.62,1.152 -3.456,2.521 -5.796,3.96 -2.448,1.404 -5.688,3.276 -8.748,4.788 -3.204,1.404 -7.236,2.809 -10.008,3.816 -2.88,0.899 -5.652,1.836 -6.66,1.979 -1.081,0.037 -1.729,-0.431 0.576,-1.403 l 0,0 z"
           style="fill-rule:evenodd;stroke:#000000;stroke-width:0.036;stroke-miterlimit:10"
           id="path65" />
        <path
           d="m 107.55,27.687 c 1.836,-0.396 6.192,-0.72 10.296,-0.828 4.031,-0.18 9.288,-0.18 13.248,0.144 3.779,0.217 7.812,1.009 9.468,1.549 1.548,0.504 1.044,1.439 0.144,1.548 -0.972,0 -3.275,-0.973 -5.939,-1.261 -2.844,-0.323 -7.021,-0.611 -10.44,-0.575 -3.456,0 -7.02,0.144 -9.864,0.432 -3.023,0.108 -5.939,0.468 -7.2,0.396 -1.117,-0.181 -1.62,-1.117 0.287,-1.405 l 0,0 z"
           style="fill-rule:evenodd;stroke:#000000;stroke-width:0.036;stroke-miterlimit:10"
           id="path67" />
        <path
           d="m 111.475,14.834 c 1.943,0.685 10.548,1.765 15.264,3.385 4.68,1.619 10.44,5.508 12.853,6.516 2.304,0.864 1.943,-0.216 1.26,-0.864 -0.792,-0.828 -2.952,-1.908 -5.508,-3.24 -2.664,-1.403 -6.517,-3.132 -9.9,-4.355 -3.564,-1.26 -8.208,-2.304 -10.584,-2.556 -2.378,-0.289 -5.402,0.359 -3.385,1.114 l 0,0 z"
           style="fill-rule:evenodd;stroke:#000000;stroke-width:0.036;stroke-miterlimit:10"
           id="path69" />
        <path
           d="m 145.206,28.263 c 0.612,1.115 4.212,4.248 5.796,6.336 1.62,2.016 2.7,4.823 3.673,5.796 0.72,0.899 1.691,0.756 1.26,-0.288 -0.54,-1.152 -2.232,-4.284 -3.816,-6.336 -1.62,-2.124 -4.319,-5.076 -5.472,-5.94 -1.26,-1.008 -2.161,-0.72 -1.441,0.432 l 0,0 z"
           style="fill-rule:evenodd;stroke:#000000;stroke-width:0.036;stroke-miterlimit:10"
           id="path71" />
        <path
           d="m 145.639,36.291 c 0.684,0.576 3.023,3.996 4.392,6.517 1.225,2.447 2.16,5.868 2.809,7.884 0.396,1.692 0.252,2.952 0.144,3.384 -0.144,0.648 -0.144,0.792 -0.576,-0.144 -0.468,-1.152 -1.224,-4.284 -2.124,-6.624 -1.151,-2.484 -3.06,-6.084 -3.924,-7.885 -0.866,-1.98 -1.297,-3.673 -0.721,-3.132 l 0,0 z"
           style="fill-rule:evenodd;stroke:#000000;stroke-width:0.036;stroke-miterlimit:10"
           id="path73" />
        <path
           d="m 158.635,74.703 c 0.504,1.116 2.376,4.428 3.672,6.048 1.116,1.404 2.34,2.305 3.239,2.7 0.828,0.216 1.44,-0.54 1.549,-0.72 -0.036,-0.216 -1.009,-0.036 -1.549,-0.433 -0.684,-0.504 -1.439,-1.296 -2.123,-2.231 -0.792,-1.08 -1.692,-2.628 -2.269,-3.672 -0.684,-1.008 -1.152,-2.088 -1.548,-2.269 -0.576,-0.359 -1.368,-0.54 -0.971,0.577 l 0,0 z"
           style="fill-rule:evenodd;stroke:#000000;stroke-width:0.036;stroke-miterlimit:10"
           id="path75" />
        <path
           d="m 167.814,82.551 c 0.18,0.18 0.72,-0.072 1.224,-0.54 0.504,-0.469 0.756,-0.973 0.576,-1.152 -0.144,-0.18 -0.684,0.072 -1.188,0.54 -0.504,0.468 -0.756,0.972 -0.612,1.152 l 0,0 z"
           style="fill-rule:evenodd;stroke:#000000;stroke-width:0.036;stroke-miterlimit:10"
           id="path77" />
        <path
           d="m 139.591,18.903 c 0.107,-1.548 1.079,-4.68 1.403,-7.056 0.216,-2.376 -0.576,-5.509 -0.288,-6.769 0.181,-1.224 1.116,-1.512 1.549,-0.864 0.287,0.576 0.575,2.124 0.575,4.104 -0.036,1.908 -0.18,5.148 -0.575,7.2 -0.469,1.943 -1.261,3.996 -1.692,4.644 -0.468,0.468 -1.117,0.181 -0.972,-1.259 l 0,0 z"
           style="fill-rule:evenodd;stroke:#000000;stroke-width:0.036;stroke-miterlimit:10"
           id="path79" />
        <path
           d="m 143.118,20.019 c 0.9,-1.332 4.212,-3.996 6.048,-6.048 1.765,-2.232 3.133,-4.393 4.393,-6.624 1.044,-2.376 1.836,-5.977 2.52,-6.912 0.648,-1.008 1.908,-0.072 1.692,1.548 -0.396,1.656 -1.944,5.4 -3.528,8.316 -1.548,2.771 -4.212,6.191 -5.903,8.172 -1.837,1.872 -3.996,3.096 -4.824,3.384 -0.974,0.107 -1.297,-0.504 -0.398,-1.836 l 0,0 z"
           style="fill-rule:evenodd;stroke:#000000;stroke-width:0.036;stroke-miterlimit:10"
           id="path81" />
        <path
           d="m 147.475,22.719 c 0.756,-0.864 2.628,-2.916 4.788,-3.673 2.016,-0.792 6.552,-1.115 7.775,-0.972 1.152,0.108 0.36,1.225 -0.72,1.692 -1.224,0.359 -4.392,-0.252 -6.048,0.54 -1.764,0.647 -3.132,3.023 -4.104,3.672 -1.008,0.54 -1.62,0.036 -1.836,-0.145 -0.359,-0.214 -0.684,-0.394 0.145,-1.114 l 0,0 z"
           style="fill-rule:evenodd;stroke:#000000;stroke-width:0.036;stroke-miterlimit:10"
           id="path83" />
        <path
           d="m 81.342,175.827 c 0.972,0.685 3.492,2.124 5.904,3.061 2.34,0.863 5.436,1.619 8.028,2.124 2.52,0.396 5.76,0.827 6.804,0.72 0.864,-0.18 -0.072,-1.08 -1.44,-1.44 -1.656,-0.432 -4.788,-0.504 -7.308,-1.044 -2.592,-0.72 -5.364,-1.943 -7.344,-2.7 -1.98,-0.899 -3.744,-1.979 -4.464,-2.124 -0.792,-0.109 -1.224,0.538 -0.18,1.403 l 0,0 z"
           style="fill-rule:evenodd;stroke:#000000;stroke-width:0.036;stroke-miterlimit:10"
           id="path85" />
        <path
           d="m 104.238,180.687 c -0.18,0 -0.576,0.432 -0.36,0.756 0.072,0.144 0.648,0.684 0.9,0.648 0.252,-0.072 0.468,-0.864 0.504,-1.009 -0.216,-0.323 -0.756,-0.503 -1.044,-0.395 l 0,0 z"
           style="fill-rule:evenodd;stroke:#000000;stroke-width:0.036;stroke-miterlimit:10"
           id="path87" />
        <path
           d="m 78.678,172.443 c -0.324,0.072 -0.504,0.468 -0.396,0.792 -0.036,0.144 0.684,0.684 0.9,0.648 0.216,-0.108 0.54,-0.828 0.54,-1.045 -0.216,-0.323 -0.756,-0.504 -1.044,-0.395 l 0,0 z"
           style="fill-rule:evenodd;stroke:#000000;stroke-width:0.036;stroke-miterlimit:10"
           id="path89" />
        <path
           d="m 43.218,188.787 c -4.248,0.973 -8.172,2.412 -12.06,4.32 -3.96,1.691 -7.812,3.636 -10.98,6.804 -3.204,3.132 -5.184,5.688 -7.74,12.384 -2.7,6.732 -6.156,18.468 -7.884,27.72 -1.764,9.18 -2.124,18.432 -2.34,26.928 -0.252,8.424 0.288,16.776 0.936,23.256 0.504,6.372 0.828,10.152 2.34,14.832 1.404,4.536 4.032,8.352 6.336,12.708 2.196,4.249 4.248,7.884 7.128,12.997 2.772,5.112 6.012,10.8 9.72,17.46 l 0,0 c 2.556,-3.492 5.184,-6.479 7.74,-8.819 2.556,-2.412 4.716,-4.068 7.596,-5.4 2.736,-1.476 5.724,-2.556 8.964,-3.24 l 0,0 c -0.828,-3.275 -1.872,-7.56 -3.564,-12.997 -1.656,-5.544 -4.932,-14.22 -6.336,-19.512 -1.548,-5.328 -1.872,-9.576 -2.628,-12.06 -0.792,-2.484 -0.54,-2.268 -2.16,-2.808 -1.908,-0.684 -7.056,-0.9 -8.064,-1.224 -0.972,-0.504 1.152,-1.296 2.628,-1.404 1.512,-0.072 4.644,0.504 6.048,0.468 1.152,-0.252 0.972,-0.072 1.404,-1.692 0.324,-1.764 0.54,-6.12 1.08,-8.496 0.468,-2.412 1.188,-4.104 2.16,-5.904 0.9,-1.944 2.556,-3.744 3.564,-5.4 0.9,-1.728 1.8,-3.276 2.304,-4.788 l 0,0 c -0.936,-0.792 -1.944,-1.908 -2.628,-3.492 -0.864,-1.656 -2.052,-5.148 -2.016,-5.904 -0.036,-0.756 1.332,0.54 2.016,1.548 0.648,1.044 0.756,3.096 1.872,4.356 1.08,1.08 3.168,1.62 4.32,2.16 0.864,0.36 0.54,0.432 1.548,0.612 0.972,0.144 4.464,-0.072 4.788,0.324 0.18,0.324 -1.692,1.44 -3.096,1.692 -1.404,0.108 -3.204,0 -5.256,-0.612 l 0,0 c -0.504,2.16 -1.368,4.212 -2.448,6.012 -1.188,1.692 -3.276,2.7 -4.176,4.824 -0.936,2.16 -1.08,5.616 -1.26,7.884 -0.324,2.016 -0.108,3.672 -0.468,4.968 -0.468,1.224 -1.728,2.016 -1.836,2.916 -0.144,0.792 0.684,0.216 1.224,2.16 0.324,1.836 0.468,4.788 1.548,9 1.08,4.068 3.564,10.944 5.112,15.624 1.368,4.572 2.556,8.604 3.564,11.952 0.864,3.276 1.728,5.725 2.16,7.74 0.396,1.979 0.396,3.276 0.144,4.032 l 0,0 c -0.468,1.008 -0.072,1.907 0.792,3.239 0.864,1.225 3.24,2.341 4.644,4.032 1.152,1.548 2.088,3.204 3.24,5.544 1.152,2.269 2.664,5.832 3.852,8.208 1.116,2.34 2.7,3.744 3.096,5.58 0.252,1.729 0.396,3.78 -1.08,4.645 -1.476,0.684 -4.104,0.575 -7.74,-0.324 l 0,0 c 1.548,1.224 2.232,2.231 2.484,3.563 0.18,1.261 0.036,2.772 -1.548,3.708 -1.656,0.757 -4.392,1.116 -8.352,1.08 l 0,0 0.144,7.452 0,0 c 1.152,-0.18 2.556,-0.18 4.5,0 1.872,0.18 4.14,0.54 6.804,1.08 l 0,0 0,10.512 0,0 c 5.472,-0.396 10.224,-0.647 14.4,-0.611 4.104,-0.036 7.236,0.576 10.224,0.468 2.844,-0.216 4.392,0.612 7.416,-1.548 3.06,-2.34 6.624,-6.084 10.836,-11.772 l 0,0 c -2.7,-8.1 -4.428,-16.739 -5.58,-26.315 -1.188,-9.648 -1.548,-20.7 -1.08,-30.78 0.468,-10.152 1.656,-19.98 3.708,-29.772 l 0,0 c -3.78,-3.204 -7.488,-6.984 -11.124,-11.484 -3.672,-4.536 -6.768,-9.036 -10.836,-15.444 -4.248,-6.516 -8.712,-14.256 -13.932,-23.364 l 0,0 c 0.396,-2.88 0.648,-5.472 0.756,-7.92 0.036,-2.52 0.036,-4.608 -0.144,-6.66 l 0,0 c -2.196,0.54 -4.104,0.612 -5.868,0.216 -1.728,-0.468 -3.276,-1.26 -4.644,-2.808 -1.512,-1.692 -2.916,-4.104 -4.356,-6.948 -1.512,-2.988 -2.736,-5.94 -4.644,-10.512 -2.015,-4.718 -4.391,-10.155 -7.272,-16.994 l 0,0 z"
           style="fill:#294b70;fill-rule:evenodd;stroke:#000000;stroke-width:0.036;stroke-miterlimit:10"
           id="path91" />
        <path
           d="m 179.37,185.475 c 3.276,0.144 6.588,0.828 10.08,1.908 3.528,0.936 7.38,2.016 10.44,4.607 2.735,2.556 4.355,5.76 6.804,11.269 2.556,5.471 5.616,14.831 8.208,21.708 2.484,6.84 5.076,14.004 6.516,19.152 1.297,4.968 1.477,6.912 1.513,11.268 -0.108,4.284 -0.216,7.632 -1.692,15.048 -1.584,7.452 -5.076,20.772 -7.164,29.556 -2.16,8.784 -3.42,14.292 -5.328,22.5 -1.907,8.064 -3.996,16.488 -6.12,25.668 l 0,0 c -1.188,-3.204 -3.023,-6.191 -5.651,-9.252 -2.628,-3.096 -6.588,-6.804 -9.937,-8.892 -3.456,-2.232 -8.748,-2.052 -10.584,-3.924 -1.872,-1.944 -1.188,-3.889 -0.863,-7.345 0.216,-3.6 0.899,-9.036 2.052,-13.68 0.936,-4.644 2.304,-9.36 3.96,-14.004 1.691,-4.86 5.256,-10.98 6.12,-14.184 0.72,-3.168 -0.433,-3.276 -1.513,-4.788 -1.151,-1.656 -3.455,-3.204 -4.968,-4.788 -1.656,-1.656 -3.456,-3.24 -4.428,-4.752 -0.972,-1.512 -1.296,-2.808 -1.368,-4.428 -0.107,-1.836 0.576,-5.256 0.504,-5.976 -0.216,-0.828 -1.439,0.324 -1.728,1.512 -0.288,1.116 -0.036,3.636 -0.504,5.328 -0.721,1.548 -2.305,2.376 -3.24,4.428 -0.972,1.944 -2.088,6.408 -2.232,7.704 -0.107,1.152 0.721,0.756 1.368,-0.36 0.504,-1.26 0.9,-5.004 1.729,-6.66 0.684,-1.692 1.691,-2.664 2.735,-3.06 l 0,0 c 0.721,1.8 1.692,3.312 3.061,4.932 1.26,1.584 3.456,2.88 4.788,4.284 1.224,1.116 2.628,1.872 3.096,3.24 0.36,1.332 0.432,2.448 -0.36,5.148 -0.899,2.7 -3.023,7.272 -4.428,11.088 -1.404,3.672 -2.664,6.516 -3.78,11.448 -1.188,5.004 -2.664,13.86 -3.06,17.964 -0.396,3.852 -0.145,4.392 0.324,5.796 0.323,1.44 0.792,2.16 1.548,2.556 l 0,0 c -0.721,1.116 -1.8,2.196 -3.097,3.097 -1.439,0.828 -3.455,0.972 -4.932,2.376 -1.548,1.439 -2.16,4.032 -3.78,5.976 -1.764,1.8 -4.932,2.844 -6.155,4.788 -1.296,1.872 -1.477,4.392 -1.368,6.156 -0.036,1.548 0.432,2.735 1.548,3.42 1.152,0.647 2.628,0.576 4.968,0.18 l 0,0 c 0,0.54 -0.504,1.008 -1.368,1.692 -1.08,0.504 -3.42,1.008 -4.104,2.052 -0.72,1.08 -0.576,2.88 0,4.284 0.576,1.296 1.691,2.808 3.06,3.42 1.261,0.468 2.736,0.036 4.284,-0.18 1.477,-0.252 2.916,-0.756 4.464,-1.368 l 0,0 c 0.216,2.052 0.685,3.42 1.692,4.104 0.972,0.576 2.7,0.396 3.924,0 1.116,-0.432 2.088,-1.224 2.916,-2.376 l 0,0 c 0.504,0.469 1.224,0.864 1.872,1.188 0.72,0.324 1.368,0.504 2.232,0.684 l 0,0 c -0.469,3.384 -0.828,6.624 -1.368,9.576 -0.54,2.988 -0.469,5.688 -1.729,8.1 -1.368,2.232 -1.979,4.104 -6.156,5.473 -4.355,1.224 -11.951,2.016 -19.296,2.231 -7.416,0.181 -17.928,0.036 -24.443,-0.863 -6.48,-0.9 -11.16,-2.484 -14.185,-4.608 l 0,0 c -2.736,-5.904 -4.824,-12.744 -6.66,-20.52 -1.872,-7.992 -3.564,-16.956 -4.104,-26.316 -0.612,-9.396 -0.108,-20.845 0.684,-29.053 0.648,-8.208 1.944,-14.868 3.6,-19.98 l 0,0 c 3.348,-1.944 6.948,-4.572 10.943,-8.028 3.96,-3.528 8.496,-8.028 12.637,-12.816 4.104,-4.86 7.775,-11.16 11.447,-16.128 3.528,-5.004 6.517,-9.72 9.396,-14.004 l 0,0 c -1.188,-4.32 -2.088,-7.56 -2.556,-10.26 -0.504,-2.664 -0.721,-4.536 -0.504,-5.616 l 0,0 c 3.132,0.036 5.867,-0.648 8.352,-1.908 2.376,-1.296 4.032,-2.592 6.336,-5.976 2.268,-3.636 4.716,-9.9 7.344,-15.048 2.557,-5.22 5.292,-10.332 8.208,-15.768 l 0,0 z"
           style="fill:#294b70;fill-rule:evenodd;stroke:#000000;stroke-width:0.036;stroke-miterlimit:10"
           id="path93" />
        <path
           d="m 108.99,316.046 c 0.324,3.06 2.376,5.329 4.572,5.112 2.196,-0.252 3.744,-2.916 3.42,-5.976 -0.324,-3.024 -2.376,-5.328 -4.608,-5.076 -2.196,0.217 -3.707,2.88 -3.384,5.94 l 0,0 z"
           style="fill-rule:evenodd;stroke:#000000;stroke-width:0.036;stroke-miterlimit:10"
           id="path95" />
        <path
           d="m 110.214,316.442 c 0.216,1.908 1.512,3.348 2.917,3.204 1.367,-0.144 2.34,-1.836 2.124,-3.744 -0.181,-1.944 -1.477,-3.384 -2.881,-3.24 -1.404,0.181 -2.34,1.837 -2.16,3.78 l 0,0 z"
           style="fill:#294b70;fill-rule:evenodd;stroke:#000000;stroke-width:0.036;stroke-miterlimit:10"
           id="path97" />
        <path
           d="m 108.63,346.827 c 0.324,3.024 2.376,5.328 4.572,5.076 2.232,-0.216 3.744,-2.88 3.42,-5.939 -0.323,-3.061 -2.376,-5.328 -4.572,-5.112 -2.232,0.251 -3.743,2.915 -3.42,5.975 l 0,0 z"
           style="fill-rule:evenodd;stroke:#000000;stroke-width:0.036;stroke-miterlimit:10"
           id="path99" />
        <path
           d="m 109.891,347.187 c 0.18,1.944 1.476,3.384 2.88,3.24 1.404,-0.181 2.34,-1.836 2.16,-3.78 -0.216,-1.908 -1.513,-3.348 -2.917,-3.204 -1.368,0.144 -2.34,1.836 -2.123,3.744 l 0,0 z"
           style="fill:#294b70;fill-rule:evenodd;stroke:#000000;stroke-width:0.036;stroke-miterlimit:10"
           id="path101" />
        <path
           d="m 195.427,344.775 c 0.035,-0.144 0.216,-0.432 0.684,-0.864 0.396,-0.432 0.972,-1.008 1.729,-1.728 l 0,0 c 1.044,1.188 1.943,2.376 2.556,3.42 0.576,1.044 0.972,2.016 1.188,2.916 l 0,0 c -1.655,-0.36 -2.916,-1.008 -3.924,-1.548 -1.046,-0.576 -1.838,-1.44 -2.233,-2.196 l 0,0 z"
           style="fill:#e0e0e0;fill-rule:evenodd;stroke:#000000;stroke-width:0.036;stroke-miterlimit:10"
           id="path103" />
        <path
           d="m 177.318,328.359 c -0.792,1.26 -1.979,2.196 -3.42,3.24 -1.476,0.936 -4.32,1.224 -5.472,2.412 -1.296,1.116 -1.009,2.808 -2.053,4.248 -1.188,1.296 -3.527,2.7 -4.788,3.924 -1.367,1.116 -2.376,1.979 -2.88,3.42 -0.647,1.404 -0.828,3.708 -0.54,4.968 0.217,1.044 0.9,1.765 2.053,1.872 1.08,0.145 2.844,0 4.464,-1.008 1.476,-1.188 3.204,-3.708 4.607,-5.472 1.225,-1.872 2.952,-4.896 3.24,-4.788 0.18,0.144 -0.756,3.744 -1.691,5.651 -1.116,1.801 -2.377,3.708 -3.78,5.292 -1.332,1.513 -2.592,2.664 -3.924,3.601 -1.44,0.828 -3.313,1.08 -4.104,1.872 -0.791,0.792 -0.828,2.088 -0.504,3.06 0.18,0.937 1.152,2.304 2.232,2.736 1.08,0.359 2.592,0.072 4.248,-0.324 1.512,-0.504 3.168,-1.044 4.968,-2.736 1.8,-1.836 4.464,-6.876 5.651,-8.027 0.973,-1.188 0.973,-0.072 0.685,0.828 -0.396,0.72 -1.584,2.411 -2.592,3.96 -1.044,1.584 -2.232,3.348 -3.564,5.436 l 0,0 c -0.072,1.224 0.252,2.088 0.828,2.736 0.576,0.647 1.584,1.08 2.592,0.863 0.9,-0.468 1.872,-1.439 3.061,-2.916 1.115,-1.512 2.699,-3.995 3.779,-5.796 0.937,-2.016 1.62,-4.571 2.196,-5.292 0.612,-0.72 1.44,0 1.368,1.188 -0.288,1.044 -1.656,3.456 -2.556,5.292 -0.937,1.692 -1.801,3.456 -2.736,5.147 l 0,0 c 0.899,1.08 1.979,1.656 3.24,1.872 1.224,0.072 2.771,-0.071 4.104,-0.863 1.152,-0.864 2.556,-2.232 3.24,-4.104 0.468,-2.052 0.504,-5.58 0.684,-7.668 0.216,-2.16 -0.036,-3.276 1.044,-5.147 1.044,-1.98 2.916,-4.248 5.473,-6.66 l 0,0 c -2.412,-3.276 -4.752,-5.94 -7.021,-7.849 -2.34,-2.052 -4.607,-2.987 -6.66,-3.779 -2.016,-0.865 -3.888,-1.261 -5.472,-1.189 l 0,0 z"
           style="fill:#e8ccba;fill-rule:evenodd;stroke:#000000;stroke-width:0.036;stroke-miterlimit:10"
           id="path105" />
        <path
           d="m 34.975,343.551 c 0.576,1.08 1.08,2.412 1.512,4.284 0.324,1.836 0.756,4.283 0.864,6.516 -0.072,2.196 -0.144,4.5 -0.36,6.48 -0.18,1.764 -0.72,3.096 -0.504,4.428 0.108,1.296 0.684,2.34 1.728,3.275 1.008,0.864 2.484,1.44 4.428,1.872 l 0,0 c 0.18,-3.888 0.648,-7.02 1.548,-9.936 0.864,-2.88 2.484,-6.372 3.744,-7.164 1.188,-0.792 2.376,0.36 3.42,2.052 0.828,1.512 1.8,4.933 2.232,7.344 0.432,2.376 0.648,4.717 0.504,7.021 l 0,0 c 1.512,0.432 2.88,0.647 4.104,0.504 1.152,-0.216 2.736,-0.432 3.24,-1.188 0.36,-0.899 0.252,-2.052 -0.324,-3.6 -0.576,-1.584 -1.872,-4.212 -2.916,-5.652 -1.116,-1.584 -2.412,-2.52 -3.744,-3.239 l 0,0 c 0.18,-1.548 -0.108,-3.24 -0.864,-4.933 -0.828,-1.8 -3.096,-4.319 -3.744,-5.472 -0.828,-1.26 -0.9,-2.16 -0.36,-1.728 0.576,0.323 2.916,2.052 4.104,3.924 1.044,1.872 1.944,4.067 2.556,7.02 l 0,0 c 1.692,2.017 3.132,3.564 4.464,4.788 1.224,1.152 2.088,1.8 3.42,2.232 1.296,0.359 4.032,0.827 4.608,0 0.432,-0.973 -0.396,-3.349 -1.368,-5.473 -1.116,-2.195 -3.204,-5.075 -4.464,-7.523 -1.188,-2.592 -1.296,-5.364 -2.556,-7.2 -1.476,-1.8 -4.14,-2.016 -5.472,-3.564 -1.224,-1.619 -2.088,-3.563 -2.196,-5.976 l 0,0 c -3.024,0.252 -5.94,1.224 -8.892,3.06 -2.916,1.836 -5.869,4.356 -8.712,7.848 l 0,0 z"
           style="fill:#e8ccba;fill-rule:evenodd;stroke:#000000;stroke-width:0.036;stroke-miterlimit:10"
           id="path107" />
        <path
           d="m 29.322,351.615 c 0.612,-1.943 1.296,-3.384 2.052,-4.464 0.72,-1.08 1.512,-1.764 2.376,-2.052 l 0,0 c 0.432,0.432 0.828,1.008 1.044,1.728 0.144,0.648 0.252,1.44 0.18,2.376 l 0,0 c -0.936,0.721 -1.8,1.297 -2.736,1.729 -0.936,0.432 -1.907,0.611 -2.916,0.683 l 0,0 z"
           style="fill:#e0e0e0;fill-rule:evenodd;stroke:#000000;stroke-width:0.036;stroke-miterlimit:10"
           id="path109" />
        <path
           d="m 44.406,378.975 c -0.072,-3.996 -0.072,-7.38 0,-10.296 -0.036,-3.024 -0.072,-5.148 0.468,-7.344 0.54,-2.305 1.908,-5.437 2.988,-6.084 0.972,-0.648 2.052,-0.433 2.952,2.195 0.756,2.628 1.512,9.36 1.872,13.104 0.288,3.636 0.288,6.3 0,8.424 l 0,0 -2.808,0 0,0 c 0.288,-1.476 0.288,-2.628 0.144,-3.6 -0.324,-1.116 -0.792,-1.837 -1.404,-2.017 -0.648,-0.107 -1.836,0.54 -2.16,1.548 -0.468,0.9 -0.576,2.16 -0.324,3.925 l 0,0 c -0.575,0.037 -1.152,0.073 -1.728,0.145 l 0,0 z"
           style="fill:#77605b;fill-rule:evenodd;stroke:#000000;stroke-width:0.036;stroke-miterlimit:10"
           id="path111" />
        <path
           d="m 33.318,383.187 c 2.664,-0.756 5.688,-1.368 9.072,-1.692 3.384,-0.504 7.2,-0.72 10.908,-0.647 3.636,0.107 6.948,0.576 10.476,1.404 l 0,0 c -0.648,7.92 -1.332,17.315 -2.052,29.016 -0.9,11.664 -1.908,30.528 -2.484,40.212 -0.54,9.396 -0.612,10.44 -0.792,16.596 -0.324,6.192 -0.684,12.816 -1.08,20.305 l 0,0 c -4.752,0.359 -9.072,0.432 -13.104,0.611 -4.104,0.072 -7.668,0.072 -11.088,0 l 0,0 c -0.972,-17.279 -1.548,-31.932 -1.872,-44.784 -0.288,-12.924 -0.144,-24.875 0,-31.535 -0.072,-6.588 -0.54,-2.916 -0.144,-7.74 0.324,-4.933 1.044,-12.134 2.16,-21.746 l 0,0 z"
           style="fill:#77605b;fill-rule:evenodd;stroke:#000000;stroke-width:0.036;stroke-miterlimit:10"
           id="path113" />
        <path
           d="m 47.322,385.527 c -1.224,8.784 -2.16,18.756 -2.952,30.349 -0.972,11.52 -1.692,26.712 -1.872,38.483 -0.144,11.772 0.18,22.032 1.116,31.464 l 0,0 c 0.324,-24.191 0.864,-44.172 1.476,-61.056 0.577,-16.812 1.368,-29.7 2.232,-39.24 l 0,0 z"
           style="fill-rule:evenodd;stroke:#000000;stroke-width:0.036;stroke-miterlimit:10"
           id="path115" />
        <path
           d="m 108.918,380.739 c -1.62,2.412 -3.42,4.608 -5.4,6.444 -2.052,1.908 -3.708,3.6 -6.768,4.644 -3.276,0.828 -7.272,0.433 -11.844,0.612 -4.536,0.072 -11.952,-0.252 -15.156,0 -3.312,0.108 -4.716,0.504 -4.356,1.044 l 0,0 c -0.936,7.849 -1.584,15.264 -2.088,22.824 -0.576,7.488 -0.648,14.688 -1.044,21.888 -0.468,7.092 -0.972,13.752 -1.512,20.412 l -0.144,0.18 c 1.62,8.856 2.988,15.984 4.176,21.744 1.188,5.76 1.908,9.216 2.88,12.456 0.9,3.24 1.764,5.185 2.7,6.769 0.9,1.548 1.332,1.979 2.844,2.556 1.476,0.576 4.68,0.54 6.012,0.9 1.296,0.323 2.016,0.827 1.8,1.044 -0.252,0.216 -1.908,0.288 -3.168,0.288 -1.26,0.035 -2.7,0 -4.356,-0.145 0.864,3.96 1.656,8.172 2.412,12.924 0.756,4.716 1.548,9.504 2.088,15.156 0.54,5.652 0.864,12.888 1.224,18.468 0.324,5.58 0.72,9.973 0.9,14.688 0.108,4.752 -0.18,9.54 0,13.536 0.144,3.96 0.684,7.812 0.9,10.044 0.144,2.16 0.216,3.168 0.144,2.987 2.268,0.145 4.608,0.181 7.056,0.145 2.412,0 4.608,-0.108 7.488,-0.288 2.88,-0.18 7.416,-0.432 9.612,-0.756 2.16,-0.288 2.412,-0.324 3.276,-1.044 0.864,-0.756 1.476,-1.8 1.8,-3.313 -0.036,-2.916 -0.072,-8.352 -0.144,-16.632 -0.036,-8.352 0.036,-19.728 -0.144,-32.724 -0.18,-13.032 -0.792,-33.12 -0.9,-44.676 -0.108,-11.484 0.108,-16.524 0.288,-23.832 0.18,-7.345 0.756,-14.725 0.756,-19.765 -0.036,-5.04 -0.324,-8.388 -0.9,-10.224 -0.684,-0.145 -1.584,-0.252 -2.7,-0.288 -1.116,-0.072 -3.348,0.18 -3.888,0 l 0,0 c -0.54,-0.18 0.072,-0.9 0.756,-1.044 0.684,-0.18 2.124,0.072 3.276,0.144 1.152,0.072 2.304,0.252 3.6,0.288 1.332,0.072 3.6,-0.107 4.212,0 0.612,0.145 0,0.576 -0.612,0.756 -0.576,0.181 -1.584,0.288 -2.988,0.288 0.468,4.248 0.684,10.296 0.612,18.468 -0.108,8.209 -0.972,20.664 -1.044,30.313 -0.108,9.576 0.396,17.064 0.576,26.856 0.18,9.827 0.36,23.147 0.468,31.5 0.072,8.279 0.108,11.268 0.144,18 0.036,6.768 0.036,14.04 0,22.176 1.656,-0.072 3.384,-0.036 5.4,0.144 1.98,0.181 3.924,0.9 6.444,0.9 2.52,-0.036 5.364,-0.72 8.568,-1.044 3.203,-0.324 6.624,-0.648 10.476,-0.9 -1.08,-12.888 -1.62,-23.904 -1.62,-33.624 -0.036,-9.684 0.828,-17.604 1.477,-24.156 0.647,-6.552 1.584,-10.548 2.411,-14.832 0.792,-4.283 1.584,-7.775 2.412,-10.655 -1.296,-0.145 -2.483,-0.145 -3.6,0 -1.152,0.107 -2.664,0.899 -3.168,0.756 -0.504,-0.216 -0.612,-1.44 0.144,-1.8 0.756,-0.36 2.952,-0.145 4.356,-0.324 1.404,-0.179 2.771,0.756 4.068,-0.72 1.26,-1.513 2.411,-3.889 3.455,-8.137 0.973,-4.248 1.225,-6.983 2.521,-17.1 1.332,-10.188 3.852,-32.868 5.256,-43.164 l 0,0 c 1.404,-10.224 1.908,-11.232 3.168,-17.856 1.225,-6.623 2.592,-13.716 4.176,-21.6 -4.571,0.612 -9.216,1.08 -14.075,1.368 -4.933,0.252 -9.937,0.468 -15.013,0.288 -5.111,-0.18 -10.979,-0.396 -15.3,-1.368 -4.356,-0.936 -7.776,-2.376 -10.512,-4.32 -1.188,-1.728 -2.052,-3.06 -2.628,-4.104 0,-0.036 -0.036,-0.072 -0.036,-0.072 -0.036,-0.072 -0.072,-0.108 -0.108,-0.18 -0.036,-0.072 -0.036,-0.108 -0.072,-0.145 -0.576,-1.115 -0.792,-1.728 -0.612,-1.979 l -0.432,-1.187 z"
           style="fill:#294b70;fill-rule:evenodd;stroke:#000000;stroke-width:0.036;stroke-miterlimit:10"
           id="path117" />
        <path
           d="m 106.506,594.111 c -0.108,0.396 -0.9,1.188 -2.232,2.232 -1.368,0.972 -3.276,2.34 -5.868,3.96 l 0,0 c 0.72,1.691 0.612,3.312 -0.18,5.004 -0.936,1.476 -2.088,2.34 -4.968,4.824 -3.024,2.52 -8.892,8.388 -12.6,10.512 -3.708,1.979 -8.568,3.312 -9.324,1.908 -0.864,-1.513 1.872,-6.696 4.32,-10.152 2.268,-3.6 7.164,-8.28 9.828,-10.691 2.628,-2.484 4.644,-3.709 6.048,-3.816 l 0,0 c -0.54,-0.468 -0.756,-0.864 -1.044,-1.188 -0.18,-0.359 -0.432,-0.647 -0.36,-0.863 l 0,0 c -2.808,1.188 -5.832,3.42 -9.468,6.552 -3.78,3.096 -8.64,7.92 -12.06,12.24 -3.384,4.355 -6.624,9.432 -7.776,13.428 -1.368,3.888 -1.188,8.352 0.54,9.647 1.692,1.116 5.76,-0.504 9.828,-2.916 3.96,-2.592 9.756,-8.424 13.932,-12.06 4.032,-3.708 7.164,-6.408 10.368,-9.647 3.06,-3.349 7.128,-8.28 8.604,-9.648 1.512,-1.332 1.08,-0.072 0.36,1.548 -0.828,1.584 -2.664,3.924 -5.364,7.561 l 0,0 -0.504,4.823 0,0 c 2.088,-2.088 3.924,-3.852 5.508,-5.832 1.62,-1.979 3.168,-3.42 3.96,-5.688 0.576,-2.34 0.252,-6.012 0,-7.956 -0.324,-1.982 -0.792,-3.242 -1.548,-3.782 l 0,0 z"
           style="fill:#77605b;fill-rule:evenodd;stroke:#000000;stroke-width:0.036;stroke-miterlimit:10"
           id="path119" />
        <path
           d="m 93.402,598.251 c 0.72,-0.217 1.8,0.071 2.412,0.863 0.612,0.756 2.052,2.412 1.404,4.141 -0.9,1.62 -3.132,3.491 -5.868,6.012 -2.88,2.52 -7.344,6.804 -10.332,8.964 -3.096,1.98 -5.832,3.096 -7.092,2.952 -1.26,-0.252 -1.44,-1.764 0,-4.14 1.332,-2.484 5.436,-7.309 8.28,-10.188 2.844,-2.916 6.444,-5.688 8.46,-7.056 1.8,-1.404 1.873,-1.548 2.736,-1.548 l 0,0 z"
           style="fill:#77605b;fill-rule:evenodd;stroke:#000000;stroke-width:0.036;stroke-miterlimit:10"
           id="path121" />
        <path
           d="m 119.106,589.287 c -0.828,0.54 -1.512,1.584 -1.908,3.276 -0.468,1.692 -0.647,4.068 -0.684,6.552 -0.072,2.269 -0.181,5.616 0.504,7.561 0.576,1.908 1.296,2.412 3.132,3.996 1.728,1.476 4.14,3.096 7.38,5.004 l 0,0 1.044,-4.5 0,0 c -2.016,-1.188 -3.744,-2.16 -5.328,-3.456 -1.62,-1.296 -4.248,-3.636 -4.14,-3.96 0.108,-0.433 1.728,0 4.464,1.728 2.628,1.548 7.344,5.221 11.232,8.101 3.779,2.916 7.344,6.516 11.376,9.144 3.96,2.412 8.64,4.645 12.239,6.012 3.456,1.44 7.093,2.664 8.965,2.269 1.979,-0.576 2.771,-2.557 2.231,-5.364 -0.792,-2.952 -3.672,-7.776 -6.552,-11.556 -3.096,-3.853 -7.092,-7.849 -10.872,-11.017 -3.816,-3.312 -8.064,-6.336 -11.196,-8.1 -3.096,-1.8 -5.508,-2.556 -7.235,-2.412 l 0,0 c 0.432,0.612 0.647,1.188 0.504,1.728 -0.145,0.54 -0.54,1.009 -1.188,1.549 l 0,0 c 3.313,1.044 6.48,2.304 9.648,4.319 3.168,1.944 7.092,4.429 9.288,7.057 2.052,2.556 2.808,5.688 2.951,7.739 -0.035,1.872 -0.035,3.996 -2.771,3.456 -2.844,-0.756 -10.08,-5.184 -13.788,-7.596 -3.744,-2.484 -6.552,-4.86 -8.424,-6.696 -1.872,-1.836 -2.952,-3.275 -2.952,-4.319 l 0,0 c -1.944,0.107 -3.456,-0.108 -4.824,-1.044 -1.476,-0.973 -2.7,-2.736 -3.275,-4.32 -0.54,-1.587 -0.433,-3.351 0.179,-5.151 l 0,0 z"
           style="fill:#77605b;fill-rule:evenodd;stroke:#000000;stroke-width:0.036;stroke-miterlimit:10"
           id="path123" />
        <path
           d="m 129.259,599.979 c 0.468,1.512 2.304,3.6 4.68,5.688 2.376,1.979 6.12,4.319 9.288,6.191 3.023,1.764 7.02,4.284 8.784,4.5 1.584,0.072 1.62,-2.016 1.224,-3.636 -0.54,-1.836 -1.152,-4.104 -3.636,-6.372 -2.557,-2.304 -7.849,-5.436 -11.017,-7.056 -3.132,-1.765 -6.12,-2.88 -7.596,-2.772 -1.584,0.145 -2.303,1.801 -1.727,3.457 l 0,0 z"
           style="fill:#77605b;fill-rule:evenodd;stroke:#000000;stroke-width:0.036;stroke-miterlimit:10"
           id="path125" />
        <polygon
           points="97.218,618.411 92.395,618.771 97.362,613.587 97.362,613.587 "
           style="fill:#77605b;fill-rule:evenodd;stroke:#000000;stroke-width:0.036;stroke-miterlimit:10"
           id="polygon127" />
        <polygon
           points="129.114,615.675 133.074,614.811 130.122,612.039 130.122,612.039 "
           style="fill:#77605b;fill-rule:evenodd;stroke:#000000;stroke-width:0.036;stroke-miterlimit:10"
           id="polygon129" />
      </g>
    </g>
    <g
       id="g3667"
       transform="matrix(1.2001467,0,0,1.2001467,2147.2089,1069.7755)">
      <g
         transform="translate(-1394.5787,-276.09779)"
         id="g3658">
        <path
           style="fill:#d2d4d3"
           d="m 135.517,162.667 c -0.971,-0.219 0.6,-1.699 0.479,-2.639 7.95,0.049 15.44,-5.931 24.24,-5.521 -0.18,1.08 -1.4,0.67 -2.16,0.96 -1.79,0.67 -3.21,1.37 -5.76,1.92 -5.79,1.251 -11.21,3.541 -16.799,5.28 z"
           id="path3635" />
        <path
           style="fill:#d2d4d3"
           d="m 102.876,125.708 c -3.09,0.25 -5.2,-1.06 -8.16,-1.44 7.841,-2.48 15.601,-1.45 22.801,-2.88 5.46,-2.72 10.859,-4.67 17.52,-5.52 4.35,-0.56 8.11,-0.78 12.48,1.68 6.069,3.41 8.35,9.46 11.52,16.08 1.23,2.58 2.79,5.1 3.84,7.68 2.33,5.73 3.47,11.62 5.28,17.04 1.39,4.149 3.35,7.72 5.04,12.24 1.47,3.93 2.68,8.159 4.08,12.479 0.64,1.98 1.55,3.76 2.399,5.76 3.46,8.181 5.79,16.73 8.4,24.24 1.2,3.461 3.3,6.381 3.6,9.84 -2.17,0.76 -3.05,-1.93 -3.84,-3.6 -6.26,-13.23 -11.14,-30.71 -16.319,-43.199 -4.98,-8.781 -8.561,-20.601 -12.48,-30.48 -1.2,-3.03 -2.85,-5.721 -4.08,-8.641 -0.51,-1.209 -0.45,-2.59 -0.96,-3.84 -1.97,-4.87 -5.61,-8.72 -8.88,-12.48 -2.62,-0.4 -6.22,-3.37 -8.4,-1.2 1.12,1.32 2.851,1.99 3.601,3.36 4.06,7.4 -0.51,21.339 -3.12,29.281 -1.59,4.85 -3.71,9.119 -5.04,13.92 -1.99,7.17 -4.311,13.81 -6.24,20.879 -3.729,13.65 -8.189,28.84 -12.24,41.521 -0.22,5.271 -2.88,10.97 -4.08,16.319 -0.5,2.24 -0.81,3.931 -1.68,6.48 -0.81,2.36 -1.17,5.37 -3.359,5.28 -0.41,-5.39 1.71,-10.64 2.88,-16.08 1.01,-4.72 2.029,-9.53 3.359,-14.399 2.23,-8.15 4.141,-16.561 6.721,-24.48 5.42,-16.641 8.8,-33.051 14.64,-49.92 2.25,-6.5 4.689,-13.11 5.52,-20.16 0.7,-6 -1.81,-10.4 -7.199,-10.8 -0.87,0.01 -0.62,1.14 -1.2,1.44 -6.03,1.26 -11.4,0.86 -16.8,1.68 -3.293,0.5 -6.434,1.67 -9.604,1.92 z"
           id="path3637" />
        <path
           style="fill:#d2d4d3"
           d="m 59.916,133.868 c 0.76,-2.58 -0.99,-3.24 -1.92,-4.561 -1.39,-1.97 -1.85,-4.9 -2.4,-6.96 2.22,-0.37 1.37,0.86 1.92,2.16 2.76,3.62 5.43,10.01 7.44,14.88 3.37,8.18 7.11,16.439 10.08,25.439 0.78,2.36 1.34,4.711 2.16,6.961 0.76,2.08 2.189,3.729 3.12,5.76 1.109,2.41 1.39,5.25 2.399,7.68 1.051,2.54 2.521,4.58 3.12,7.2 -0.04,0.28 0.05,0.431 0.24,0.479 -0.18,0.541 -1.35,0.09 -1.92,0.24 -1.79,-3.68 -2.88,-7.48 -4.32,-11.279 -1.56,-4.11 -4.24,-7.721 -6,-11.76 -2.02,-4.631 -3.149,-9.99 -4.56,-14.881 -2.189,-7.569 -5.869,-14.638 -9.359,-21.358 z"
           id="path3639" />
        <path
           style="fill:#d2d4d3"
           d="m 33.276,137.708 c 0.19,-0.53 0.5,-0.94 0.48,-1.68 7.29,-1.111 16.89,-5.041 23.28,-4.32 -4.06,2.01 -8.75,2.229 -13.2,3.359 -2.84,0.721 -6.41,1.99 -9.84,2.641 -0.24,0 -0.48,0 -0.72,0 z"
           id="path3641" />
        <path
           style="fill:#d47b3a"
           d="m 31.356,107.468 c -3.24,-0.92 -6.44,-1.88 -9.36,-3.12 2.78,-1.05 6.26,-0.84 9.6,-1.44 9.8,-1.75 18.54,-5.58 26.88,-9.36 1.19,-0.17 1.28,-0.19 2.16,0.24 4.26,-3.39 9.23,-5.34 13.2,-8.88 4.69,-4.19 7.03,-10.12 10.561,-15.6 1.51,-3.97 3.04,-8.11 4.56,-12.72 0.64,-1.93 1.96,-3.54 2.88,-5.52 2.311,-4.95 3.5,-10.37 5.28,-15.36 2.18,-6.09 5.83,-12.02 9.12,-17.52 2.82,-4.71 5.33,-9.72 10.56,-12.24 3.62,-1.75 9.67,-1.99 14.641,-2.4 5,-0.41 10.319,-1.35 14.88,-0.96 5.29,0.45 13.2,1.93 17.04,4.32 1.67,1.21 1.87,3.89 2.88,5.76 -0.44,8.12 -2.42,16.22 -1.92,24.72 0.319,5.4 1.359,10.83 1.439,16.32 0.181,11.49 0.141,25.78 -1.92,37.2 -0.54,3 -2.17,6.83 -3.84,9.12 -2.96,4.05 -6.64,6.19 -11.76,8.4 -1.41,0.61 -2.7,1.65 -4.08,2.4 -3.05,1.65 -6.94,2.51 -10.8,3.12 -7.98,1.27 -13.95,5.4 -21.36,6.24 -3.189,0.36 -6.84,0.08 -10.32,0.48 -3.569,0.41 -7.199,1.5 -10.319,1.68 -2.7,0.16 -5.03,-0.64 -7.681,-0.96 -6.25,-0.75 -13.27,-0.49 -19.919,-0.72 -4.45,-0.16 -9.26,-0.52 -13.92,-0.96 -5.14,-0.48 -10.44,-0.12 -15.12,-0.96 -7.07,-1.26 -13.97,-3.5 -19.68,-6.48 -0.53,-3.93 2.08,-6.84 5.76,-7.92 3.14,2.3 7.63,3.25 11.28,5.04 2.63,-0.36 5.25,1.11 8.64,1.44 1.26,0.12 2.89,-0.14 4.32,0 3.96,0.39 8.02,1.76 12.24,2.4 22.89,3.48 50.88,3.58 72.96,-3.6 10.93,-3.55 21.899,-6.68 26.399,-16.56 2.421,-5.31 4.601,-11.76 4.32,-17.52 -0.24,-4.9 -1.46,-10.9 -1.439,-17.28 0.04,-11.83 -1.101,-23.28 -1.2,-35.76 -1.641,9.24 -0.65,20.98 -0.48,30.96 0.061,3.89 0.2,7.81 0.48,11.52 0.26,3.45 0.95,6.8 1.2,10.08 0.5,6.45 -1.921,13.05 -4.32,18 -4.61,9.53 -17.68,13.5 -29.28,16.56 -2.81,0.74 -5.54,1.91 -8.16,2.4 -2.979,0.55 -6.34,0.55 -9.6,0.96 -12.73,1.59 -28.59,2.06 -44.4,-0.24 -5.75,-0.84 -11.35,-2.03 -17.04,-2.88 -5.93,-0.89 -14.66,0.22 -15.84,-5.76 -0.432,0.76 0.418,2.3 0.478,3.36 z"
           id="path3643" />
        <path
           style="fill:#d2d4d3"
           d="m 3.996,218.827 c -0.61,0.181 -1.36,0.24 -1.68,0.721 -0.2,0.04 -0.23,-0.09 -0.24,-0.24 -0.2,0.04 -0.23,-0.09 -0.24,-0.24 -0.04,-3.47 2.61,-6.199 3.6,-9.359 0.33,-1.041 0.18,-2.11 0.48,-3.12 0.53,-1.75 1.69,-3.32 2.16,-5.04 1.25,-4.54 1.86,-8.84 3.12,-12.96 1.14,-3.72 3.34,-6.841 4.8,-10.56 1.47,-3.75 2.41,-7.711 4.08,-11.521 1.59,-3.61 3,-7.53 4.32,-11.28 1.36,-3.859 2.93,-7.63 4.08,-11.52 1.88,-6.32 3.47,-12.721 5.28,-18.24 0.57,-1.74 0.5,-5.02 4.08,-4.32 -1.21,2.62 -2.26,5.45 -3.36,8.4 -1.09,2.91 -2.73,5.77 -3.6,8.64 -1.04,3.421 -1.61,6.9 -2.64,10.32 -1.9,6.31 -5.35,12.79 -7.68,19.2 -1.25,3.459 -1.8,6.959 -2.88,10.56 -1.32,4.37 -3.37,8.591 -4.8,12.96 -3.05,9.3 -4.99,18.91 -8.88,27.599 z"
           id="path3645" />
        <path
           d="m 141.276,121.147 c 5.92,10.68 -1.17,26.061 -4.561,37.2 8.16,-1.26 13.7,-4.96 22.561,-6 -1.94,-7.2 -5.98,-15.431 -9.36,-21.84 -0.18,-0.351 0.19,-0.591 0,-0.96 -1.76,-3.389 -5.82,-7.839 -8.64,-8.4 z m -5.759,41.52 c 5.59,-1.739 11.01,-4.029 16.8,-5.279 2.55,-0.55 3.97,-1.25 5.76,-1.92 0.76,-0.29 1.98,0.12 2.16,-0.96 -8.8,-0.41 -16.29,5.569 -24.24,5.521 0.119,0.939 -1.451,2.419 -0.48,2.638 z m -18,-41.279 c -7.2,1.43 -14.96,0.4 -22.801,2.88 2.96,0.38 5.07,1.69 8.16,1.44 3.17,-0.25 6.311,-1.42 9.601,-1.92 5.399,-0.82 10.77,-0.42 16.8,-1.68 0.58,-0.3 0.33,-1.43 1.2,-1.44 5.39,0.4 7.899,4.8 7.199,10.8 -0.83,7.05 -3.27,13.66 -5.52,20.16 -5.84,16.869 -9.22,33.279 -14.64,49.92 -2.58,7.92 -4.49,16.33 -6.721,24.48 -1.33,4.869 -2.35,9.68 -3.359,14.399 -1.17,5.44 -3.29,10.69 -2.88,16.08 2.189,0.09 2.55,-2.92 3.359,-5.28 0.87,-2.55 1.18,-4.24 1.68,-6.48 1.2,-5.35 3.86,-11.049 4.08,-16.319 4.051,-12.681 8.511,-27.87 12.24,-41.521 1.93,-7.069 4.25,-13.709 6.24,-20.879 1.33,-4.801 3.45,-9.07 5.04,-13.92 2.61,-7.941 7.18,-21.881 3.12,-29.281 -0.75,-1.37 -2.48,-2.04 -3.601,-3.36 2.181,-2.17 5.78,0.8 8.4,1.2 3.27,3.76 6.91,7.61 8.88,12.48 0.51,1.25 0.45,2.631 0.96,3.84 1.23,2.92 2.88,5.61 4.08,8.641 3.92,9.88 7.5,21.699 12.48,30.48 5.18,12.489 10.06,29.969 16.319,43.199 0.79,1.67 1.67,4.359 3.84,3.6 -0.3,-3.459 -2.399,-6.379 -3.6,-9.84 -2.61,-7.51 -4.94,-16.06 -8.4,-24.24 -0.85,-2 -1.76,-3.779 -2.399,-5.76 -1.4,-4.32 -2.61,-8.55 -4.08,-12.479 -1.69,-4.521 -3.65,-8.091 -5.04,-12.24 -1.811,-5.42 -2.95,-11.31 -5.28,-17.04 -1.05,-2.58 -2.609,-5.1 -3.84,-7.68 -3.17,-6.62 -5.45,-12.67 -11.52,-16.08 -4.37,-2.46 -8.131,-2.24 -12.48,-1.68 -6.658,0.85 -12.057,2.799 -17.517,5.52 z m -52.561,18 c -2.01,-4.87 -4.68,-11.26 -7.44,-14.88 -0.55,-1.3 0.3,-2.53 -1.92,-2.16 0.55,2.06 1.01,4.99 2.4,6.96 0.93,1.32 2.68,1.98 1.92,4.561 3.49,6.72 7.17,13.789 9.36,21.359 1.41,4.891 2.54,10.25 4.56,14.881 1.76,4.039 4.44,7.649 6,11.76 1.44,3.799 2.53,7.6 4.32,11.279 0.57,-0.15 1.74,0.301 1.92,-0.24 -0.19,-0.049 -0.28,-0.199 -0.24,-0.479 -0.6,-2.62 -2.069,-4.66 -3.12,-7.2 -1.01,-2.43 -1.29,-5.27 -2.399,-7.68 -0.931,-2.03 -2.36,-3.68 -3.12,-5.76 -0.82,-2.25 -1.38,-4.601 -2.16,-6.961 -2.971,-9.001 -6.711,-17.261 -10.081,-25.44 z m -29.28,-5.04 c 2.78,-1.95 5.69,-1.54 9.12,-2.16 2.09,-0.38 4.1,-1.79 6.48,-2.159 1.63,-0.25 3.32,0.489 4.8,-0.721 -1.18,-2.26 -1.76,-5.12 -3.12,-7.2 -5.19,-0.45 -9.03,-0.59 -13.44,-0.72 -1.07,1.79 -1.45,3.99 -2.16,6.24 -0.76,2.4 -2.99,4.64 -2.16,6.72 0.16,0 0.32,0 0.48,0 z m 21.36,-2.64 c -6.39,-0.721 -15.99,3.209 -23.28,4.32 0.02,0.739 -0.29,1.149 -0.48,1.68 0.24,0 0.48,0 0.72,0 3.43,-0.65 7,-1.92 9.84,-2.641 4.45,-1.129 9.14,-1.349 13.2,-3.359 z m -24.96,-22.32 c -3.65,-1.79 -8.14,-2.74 -11.28,-5.04 -3.68,1.08 -6.29,3.99 -5.76,7.92 5.71,2.98 12.61,5.22 19.68,6.48 4.68,0.84 9.98,0.48 15.12,0.96 4.66,0.44 9.47,0.8 13.92,0.96 6.65,0.23 13.669,-0.03 19.919,0.72 2.65,0.32 4.98,1.12 7.681,0.96 3.12,-0.18 6.75,-1.27 10.319,-1.68 3.48,-0.4 7.131,-0.12 10.32,-0.48 7.41,-0.84 13.38,-4.97 21.36,-6.24 3.859,-0.61 7.75,-1.47 10.8,-3.12 1.38,-0.75 2.67,-1.79 4.08,-2.4 5.12,-2.21 8.8,-4.35 11.76,-8.4 1.67,-2.29 3.3,-6.12 3.84,-9.12 2.061,-11.42 2.101,-25.71 1.92,-37.2 -0.08,-5.49 -1.12,-10.92 -1.439,-16.32 -0.5,-8.5 1.479,-16.6 1.92,-24.72 -1.01,-1.87 -1.21,-4.55 -2.88,-5.76 -3.84,-2.39 -11.75,-3.87 -17.04,-4.32 -4.561,-0.39 -9.88,0.55 -14.88,0.96 -4.971,0.41 -11.021,0.65 -14.641,2.4 -5.229,2.52 -7.739,7.53 -10.56,12.24 -3.29,5.5 -6.94,11.43 -9.12,17.52 -1.78,4.99 -2.97,10.41 -5.28,15.36 -0.92,1.98 -2.24,3.59 -2.88,5.52 -1.52,4.61 -3.05,8.75 -4.56,12.72 -3.53,5.48 -5.87,11.41 -10.561,15.6 -3.97,3.54 -8.94,5.49 -13.2,8.88 -0.88,-0.43 -0.97,-0.41 -2.16,-0.24 -8.34,3.78 -17.08,7.61 -26.88,9.36 -3.34,0.6 -6.82,0.39 -9.6,1.44 2.92,1.24 6.12,2.2 9.36,3.12 -0.06,-1.06 -0.91,-2.6 -0.48,-3.36 1.18,5.98 9.91,4.87 15.84,5.76 5.69,0.85 11.29,2.04 17.04,2.88 15.81,2.3 31.669,1.83 44.4,0.24 3.26,-0.41 6.62,-0.41 9.6,-0.96 2.62,-0.49 5.351,-1.66 8.16,-2.4 11.601,-3.06 24.67,-7.03 29.28,-16.56 2.399,-4.95 4.82,-11.55 4.32,-18 -0.25,-3.28 -0.94,-6.63 -1.2,-10.08 -0.28,-3.71 -0.42,-7.63 -0.48,-11.52 -0.17,-9.98 -1.16,-21.72 0.48,-30.96 0.1,12.48 1.24,23.93 1.2,35.76 -0.021,6.38 1.199,12.38 1.439,17.28 0.28,5.76 -1.899,12.21 -4.32,17.52 -4.5,9.88 -15.47,13.01 -26.399,16.56 -22.08,7.18 -50.07,7.08 -72.96,3.6 -4.22,-0.64 -8.28,-2.01 -12.24,-2.4 -1.43,-0.14 -3.06,0.12 -4.32,0 -3.388,-0.33 -6.008,-1.8 -8.638,-1.44 z m -29.76,110.16 c 0.32,-0.48 1.07,-0.54 1.68,-0.721 3.89,-8.689 5.83,-18.299 8.88,-27.6 1.43,-4.369 3.48,-8.59 4.8,-12.96 1.08,-3.601 1.63,-7.101 2.88,-10.56 2.33,-6.41 5.78,-12.891 7.68,-19.2 1.03,-3.42 1.6,-6.899 2.64,-10.32 0.87,-2.87 2.51,-5.729 3.6,-8.64 1.1,-2.95 2.15,-5.78 3.36,-8.4 -3.58,-0.7 -3.51,2.58 -4.08,4.32 -1.81,5.52 -3.4,11.92 -5.28,18.24 -1.15,3.89 -2.72,7.66 -4.08,11.52 -1.32,3.75 -2.73,7.67 -4.32,11.28 -1.67,3.81 -2.61,7.771 -4.08,11.521 -1.46,3.719 -3.66,6.84 -4.8,10.56 -1.26,4.12 -1.87,8.42 -3.12,12.96 -0.47,1.72 -1.63,3.29 -2.16,5.04 -0.3,1.01 -0.15,2.079 -0.48,3.12 -0.99,3.16 -3.64,5.89 -3.6,9.359 0.01,0.15 0.04,0.28 0.24,0.24 0.01,0.151 0.04,0.281 0.24,0.241 z m 9.36,-19.68 c -2.04,6.879 -3.21,14.069 -6.48,20.64 -2.12,0.04 -3.14,1.14 -5.04,0.239 -1.05,-5.219 3.53,-8.51 3.84,-13.92 3.63,-6.609 3.18,-14.56 6.72,-22.08 2.78,-5.899 5.41,-12.619 8.16,-19.439 1.71,-4.24 2.61,-8.93 4.32,-13.199 0.47,-1.181 1.45,-2.181 1.92,-3.361 3.6,-9.08 4.79,-18.789 8.4,-27.839 -3.83,-1.63 -9.31,-2.04 -13.2,-3.36 -4.43,-1.51 -8.99,-3.44 -7.2,-9.36 2.17,-7.19 11.44,-6.48 18.72,-7.92 11.5,-2.27 21.74,-7.56 31.68,-10.8 11,-6.21 18.22,-17.85 22.56,-31.44 1.06,-3.31 2.58,-6.09 3.84,-9.12 3.97,-9.55 6.23,-19.5 11.28,-27.84 0.82,-1.35 1.84,-2.53 2.64,-3.84 2.87,-4.72 5.391,-9.11 9.84,-12.48 3.65,-1.87 7.561,-2.31 11.761,-3.84 6.609,1.07 14.819,-1.62 22.8,-0.72 0.95,0.11 1.91,0.73 3.12,0.96 1.279,0.24 2.7,-0.14 4.08,0 8.01,0.8 12.92,5.03 12.72,12.96 -0.021,0.78 0.27,1.67 0.24,2.4 -0.2,4.39 -1.54,9.31 -1.92,13.44 -0.65,7.05 1.5,15.94 1.439,24.96 -0.04,6.46 -0.01,12.05 0,18.72 0.01,8.71 -1.22,19.4 -4.32,25.2 -4.199,7.84 -12.85,11.56 -20.64,15.12 5.72,1.97 11.14,5.32 14.16,10.56 1.27,2.2 1.99,5 3.12,7.68 1.01,2.4 2.55,4.8 3.6,7.2 2.28,5.2 3.23,11 5.76,15.359 0.181,0.74 -0.829,0.291 -0.479,1.201 5.02,11.319 8.43,23.049 12.72,34.08 3.15,8.08 5.45,16.869 9.36,25.68 1.149,2.6 2.82,5.43 2.399,8.4 -1.399,0.569 -1.85,0.809 -3.6,1.199 -0.95,-0.25 -0.97,-1.43 -2.16,-1.439 -7.45,-16.33 -12.63,-34.08 -19.92,-50.641 -2.46,-5.58 -4.729,-11.16 -6.72,-16.8 -2.4,0.21 -4.14,2.14 -6.24,2.64 -3.51,0.83 -6.75,0.91 -9.84,1.92 -3.34,1.09 -6.271,3.16 -10.32,3.121 -4.3,14.799 -9.529,29.27 -13.439,44.399 -0.811,3.12 -1.641,6.26 -2.641,9.36 -0.92,2.83 -2.27,5.799 -2.88,8.64 -0.47,2.149 -0.569,4.149 -1.2,6.239 -1.189,3.99 -2.35,8.211 -3.359,12.48 -1.04,4.4 -2.271,8.92 -4.561,12.96 -2.239,0.591 -5.14,0.36 -6,-1.68 0.351,-1.149 1.181,-0.33 1.92,0 0.29,-3.54 0.75,-7.75 1.681,-11.761 3.47,-14.989 8.279,-31.109 12.479,-45.84 0.67,-2.34 0.98,-4.85 1.681,-7.199 0.64,-2.141 1.869,-4.11 2.399,-6.24 2.771,-11.13 5.97,-21.87 9.12,-32.4 1.07,-3.58 2.84,-6.91 3.6,-10.32 0.5,-2.26 0.53,-4.449 0.961,-6.479 0.8,-3.76 2.829,-9.97 -1.681,-13.44 -5.72,1.68 -11.71,1.68 -18,2.16 -4.83,0.37 -9.13,2.58 -13.68,2.4 -3.05,-0.12 -5.83,-1.77 -8.88,-1.92 -0.771,-0.19 -1.11,-0.81 -1.681,-1.2 -0.859,-0.21 -1.859,0.68 -2.159,0.24 -9.511,-1.48 -20.13,-1.91 -28.8,-1.92 2.74,5.66 5.42,13.46 8.88,19.2 0.16,2.81 1.39,5.56 2.4,8.16 2.021,5.189 4.45,10.369 6.24,15.84 0.83,2.539 1.57,5.33 2.64,7.68 0.811,1.77 1.9,3.33 2.641,5.279 1.33,3.511 2.8,6.801 4.319,10.801 0.61,1.619 1.891,4.13 0,5.76 -1.029,-0.08 -3.239,-0.46 -5.04,-1.199 0.021,-2.261 -0.47,-4.011 -1.68,-5.041 -1.43,-7.609 -6.53,-14.15 -9.12,-22.32 -3.6,-11.359 -7.46,-23.56 -13.2,-32.879 -8.02,1.549 -17.06,3.899 -25.2,5.76 -1.81,7.08 -4.41,13.73 -6.96,20.4 -1.25,3.27 -3.05,6.35 -4.08,9.6 -1.09,3.439 -1.75,6.9 -2.88,10.32 -2.18,6.599 -4.94,13.099 -6.96,19.919 z"
           id="path3647" />
      </g>
    </g>
  </g>
</svg>
